<?xml version="1.0" encoding="iso-8859-1"?>
<!-- Generator: Adobe Illustrator 18.0.0, SVG Export Plug-In . SVG Version: 6.00 Build 0)  -->
<!DOCTYPE svg PUBLIC "-//W3C//DTD SVG 1.1//EN" "http://www.w3.org/Graphics/SVG/1.1/DTD/svg11.dtd">
<svg version="1.1" id="Layer_1" xmlns="http://www.w3.org/2000/svg" xmlns:xlink="http://www.w3.org/1999/xlink" x="0px" y="0px"
	 viewBox="0 0 1920 1080" style="enable-background:new 0 0 1920 1080;" xml:space="preserve">
<image style="display:none;overflow:visible;" width="450" height="293" xlink:href="48759857-website-hero-images-in-flat-design-style-for-web-development-purposes-busy-urban-cityscape-templates.jpg"  transform="matrix(3.6 0 0 3.6 300 25.2)">
</image>
<image style="display:none;overflow:visible;" width="1300" height="802" xlink:href="48759863-Website-hero-images-in-flat-design-style-for-web-development-purposes-Busy-urban-cityscape-templates-Stock-Vector.jpg"  transform="matrix(0.24 0 0 0.24 -2083.6345 906.8845)">
</image>
<g>
	<defs>
		<rect id="SVGID_1_" x="-0.765" width="1920.765" height="1080"/>
	</defs>
	<clipPath id="SVGID_2_">
		<use xlink:href="#SVGID_1_"  style="overflow:visible;"/>
	</clipPath>
	<g style="clip-path:url(#SVGID_2_);">
		<rect x="11" y="-543" style="fill:#A8DCD9;" width="1920" height="1920"/>
		<g>
			<defs>
				<rect id="SVGID_3_" x="11" y="-543" width="1920" height="1920"/>
			</defs>
			<clipPath id="SVGID_4_">
				<use xlink:href="#SVGID_3_"  style="overflow:visible;"/>
			</clipPath>
			<g style="opacity:0.4;clip-path:url(#SVGID_4_);">
				<polygon style="fill:#FFFFFF;" points="971.088,1111.964 2819.23,1203.776 2826.931,1048.816 				"/>
				<polygon style="fill:#FFFFFF;" points="971.144,1110.83 2787.683,758.442 2758.353,607.249 				"/>
				<polygon style="fill:#FFFFFF;" points="971.144,1110.83 2650.892,334.657 2586.289,194.85 				"/>
				<polygon style="fill:#FFFFFF;" points="971.144,1110.83 2416.813,-44.177 2320.681,-164.502 				"/>
				<polygon style="fill:#FFFFFF;" points="971.144,1110.83 2099.005,-356.116 1976.909,-449.988 				"/>
				<polygon style="fill:#FFFFFF;" points="971.144,1110.83 1715.876,-583.095 1574.891,-645.08 				"/>
				<polygon style="fill:#FFFFFF;" points="971.144,1110.83 1289.614,-711.967 1137.903,-738.474 				"/>
				<polygon style="fill:#FFFFFF;" points="971.144,1110.83 844.911,-735.266 691.256,-724.76 				"/>
				<polygon style="fill:#FFFFFF;" points="971.144,1110.83 407.516,-651.647 260.822,-604.737 				"/>
				<polygon style="fill:#FFFFFF;" points="971.144,1110.83 2.764,-465.952 -128.474,-385.355 				"/>
				<polygon style="fill:#FFFFFF;" points="971.144,1110.83 -345.9,-188.935 -454.087,-79.317 				"/>
				<polygon style="fill:#FFFFFF;" points="971.144,1110.83 -618.289,163.361 -697.151,295.651 				"/>
				<polygon style="fill:#FFFFFF;" points="971.144,1110.83 -798.618,570.53 -843.593,717.83 				"/>
				<polygon style="fill:#FFFFFF;" points="971.144,1110.83 -876.45,1008.994 -884.93,1162.774 				"/>
			</g>
		</g>
		<path style="fill:#FFFFFF;" d="M1711.973,348.674c-0.028-0.307-0.059-0.612-0.087-0.919c-0.675-3.49-2.182-6.579-4.519-9.262
			c-3.321-3.771-8.076-6.127-13.085-6.509c-1.938-0.148-3.879,0.009-5.754,0.436c-2.452-7.629-9.26-14.124-17.571-14.124
			c-3.83,0-7.5,0.877-10.699,2.487c-2.142-7.001-8.341-13.013-15.937-13.013c-9.874,0-18.637,6.321-19.427,16.709
			c-0.23,3.033,0.431,6.157,1.76,8.991c-2.48-2.135-5.567-3.497-8.97-3.497c-8.813,0-16.634,5.641-17.339,14.909
			c-0.633,8.283,6.101,17.339,14.911,17.339c1.088,0,2.163-0.089,3.211-0.258c0.038,2.421,0.56,4.837,1.645,7.059
			c2.59,5.311,7.913,8.916,13.8,9.363c3.012,0.218,5.878-0.333,8.602-1.65c1.823-0.895,3.394-2.083,4.755-3.511
			c1.055,1.17,2.25,2.222,3.584,3.105c2.838,1.873,5.955,2.946,9.344,3.218c3.502,0.253,6.837-0.389,10.003-1.92
			c3.567-1.383,6.094-4.221,8.363-7.13c0.776-1.001,1.371-2.109,1.847-3.27c3.092,2.55,6.935,4.139,10.955,4.444
			c5.196,0.398,10.434-1.367,14.346-4.814c2.562-2.276,4.404-5.032,5.529-8.266C1712.343,355.352,1712.589,352.047,1711.973,348.674
			z"/>
		<path style="fill:#FFFFFF;" d="M1425.38,362.328c-5.027,0.284-9.143,1.989-12.33,4.561c-4.535-7.072-11.815-12.423-20.192-13.281
			c0.41-1.764,0.685-3.56,0.727-5.429c0.143-7.035-2.635-13.964-7.578-18.975c-4.786-4.853-11.405-7.68-18.216-7.813
			c-6.675-0.134-14.421,2.478-18.973,7.578l0,0l-4.193,5.378c-2.306,3.972-3.513,8.252-3.623,12.839
			c-0.045,2.295,0.246,4.567,0.797,6.772c-1.202-0.011-2.407-0.015-3.609-0.026c-7.245-0.043-14.231,2.641-19.413,7.754
			c-2.091,2.06-3.787,4.467-5.091,7.068c-3.98-1.702-8.916-2.45-12.888-1.084c-1.983,0.683-3.963,1.413-5.85,2.327
			c-4.633,2.234-9.091,7.865-10.019,12.83c-1.001,5.358-0.996,5.484-0.204,10.881c0.307,2.073,1.338,4.105,2.292,5.932
			c3.209,6.134,10.081,9.993,16.903,10.131c3.567,0.054,6.914-0.786,10.036-2.52c2.091-1.176,3.863-2.678,5.37-4.448
			c0.417-0.411,0.82-0.847,1.205-1.3c2.89,2.396,6.157,4.158,9.839,5.21c4.554,1.27,9.131,1.35,13.734,0.242
			c1.582-0.186,3.169-0.376,4.753-0.565c4.734-1.196,8.85-3.497,12.345-6.902c0.75-0.739,1.432-1.536,2.081-2.355
			c5.013,8.916,14.278,15.575,24.804,14.983c9.586-0.539,18.286-4.751,23.803-11.66c3.155,2.453,7.374,3.872,12.703,3.571
			C1451.327,402.522,1452.23,360.814,1425.38,362.328z"/>
		<path style="fill:#FFFFFF;" d="M190.312,139.946c-4.787,0-8.879,1.222-12.27,3.245c-5.133-8.345-13.78-14.515-23.865-14.515
			c-5.774,0-11.309,1.281-16.178,3.638c-1.148-2.461-2.63-4.774-4.441-6.831c-4.608-5.228-12.213-9.635-19.383-9.635l-7.434,0.403
			c-5.172,1.001-9.745,3.233-13.72,6.694c-4.726,4.161-7.929,9.853-9.151,16.002c-2.265-1.153-4.726-1.877-7.122-1.877
			c-5.456,0-10.318,1.168-14.526,4.873c-3.834,3.38-6.23,8.216-6.619,13.31c-0.4,5.261,1.385,10.567,4.874,14.528
			c3.164,3.589,8.387,6.614,13.309,6.614c3.734,0,7.179-0.57,10.336-2.102c-0.318,15.461,12.27,31.743,28.631,31.743
			c12.504,0,23.948-5.934,29.616-16.209c2.274,0.682,4.649,1.089,7.123,1.089c9.353,0,18.109-3.308,24.34-9.246
			c3.25,2.536,7.572,4.1,13.03,4.1C216.358,185.768,219.935,139.946,190.312,139.946z"/>
		<path style="fill:#FFFFFF;" d="M559.504,274.361c-1.519-1.326-3.039-2.652-4.558-3.978c-3.402-2.242-7.133-3.527-11.194-3.854
			c-2.015,0.11-4.028,0.219-6.041,0.329c-3.091,0.599-5.913,1.747-8.477,3.426c-1.511-3.448-3.532-6.676-6.042-9.525
			c-4.29-4.82-9.479-8.29-15.571-10.41c-6.106-2.079-12.33-2.541-18.678-1.383c-0.552,0.034-1.103,0.081-1.654,0.132
			c-4.303,0.833-8.272,2.347-11.923,4.517c0.127-0.789,0.239-1.58,0.3-2.379c0.606-7.94-2.088-15.942-7.352-21.917
			c-1.937-1.691-3.874-3.382-5.81-5.073c-4.337-2.858-9.094-4.495-14.27-4.912c-2.568,0.139-5.134,0.279-7.702,0.42
			c-5.359,1.037-10.098,3.348-14.215,6.933c-5.787,5.098-9.4,12.396-9.985,20.08c-0.204,2.671-0.004,5.341,0.511,7.947
			c-1.525-0.326-3.088-0.536-4.703-0.536c-15.536,0-29.319,9.943-30.565,26.283c-1.114,14.603,10.754,30.565,26.283,30.565
			c1.247,0,2.476-0.087,3.696-0.213c1.074,16.362,14.575,32.653,31.849,32.653c16.595,0,31.527-9.366,35.881-25.139
			c3.762,1.64,7.792,2.703,11.971,3.094c0.558,0.052,1.116,0.108,1.671,0.177c9.533,1.18,19.941-2.83,27.019-9.066
			c2.139-1.884,4.002-4.035,5.631-6.346c1.159,1.011,2.318,2.022,3.476,3.034c3.402,2.242,7.133,3.527,11.194,3.854
			c2.015-0.11,4.028-0.219,6.041-0.329c4.205-0.815,7.922-2.628,11.152-5.439c4.539-3.999,7.373-9.724,7.833-15.751
			C565.747,285.326,563.634,279.048,559.504,274.361z"/>
		<path style="fill:#FFFFFF;" d="M778.375,348.217c-0.068-0.919-0.18-1.874-0.331-2.885c-1.238-8.276-7.817-15.374-15.581-18.047
			c-3.943-1.343-7.965-1.642-12.067-0.893l-6.031,1.999c-3.26,1.603-5.964,3.843-8.172,6.642c-0.97-1.843-2.129-3.591-3.518-5.166
			c-4.535-5.149-11.03-8.365-17.866-8.885c-2.285,0.124-4.568-0.123-6.853,0.001c-0.51,0.101-0.989,0.016-1.486,0.016h-0.015
			c-4.745,2.4-8.939,3.337-12.584,6.509c-4.918,4.336-8.037,10.657-8.739,17.161c-4.131-2.254-8.987-3.066-13.753-2.128
			c-2.268,0.446-4.557,1.41-6.646,2.167l-4.788,3.212c-2.82,2.508-4.849,5.555-6.089,9.117c-2.491,7.232-0.871,15.435,4.191,21.179
			c4.941,5.61,12.682,8.278,20.031,6.9c0.816-0.152,1.607-0.357,2.38-0.599c0.768,4.532,2.757,8.838,5.821,12.317
			c1.614,1.409,3.229,2.817,4.843,4.228c3.614,2.381,7.578,3.746,11.894,4.094c2.14-0.117,4.279-0.233,6.419-0.35
			c4.467-0.865,8.417-2.791,11.849-5.778c0.293-0.257,0.557-0.543,0.834-0.812c3.804,3.188,8.504,5.195,13.667,5.195
			c9.93,0,19.023-4.631,23.697-12.661c2.782,1.56,5.903,2.49,9.245,2.49c12.604,0,23.786-8.066,24.796-21.322
			C794.271,362.104,787.783,351.555,778.375,348.217z"/>
		<path style="fill:#FFFFFF;" d="M1029.371,236.162c-0.961-4.962-3.101-9.348-6.419-13.159c-4.718-5.358-11.475-8.702-18.588-9.245
			c-2.698-0.193-5.32,0-7.875,0.554c-1.183-3.912-3.166-7.582-5.892-10.677c-1.863-1.626-3.727-3.253-5.59-4.88
			c-4.172-2.748-8.744-4.324-13.725-4.726l-7.409,0.404c-5.156,0.997-9.713,3.221-13.674,6.669c-1.38,1.216-2.632,2.564-3.743,4.014
			c-0.682-1.076-1.425-2.119-2.273-3.082c-1.613-1.409-3.223-2.816-4.838-4.224c-3.609-2.38-7.57-3.743-11.88-4.091
			c-2.138,0.116-4.275,0.233-6.413,0.35c-4.463,0.863-8.407,2.787-11.836,5.772c-4.816,4.244-7.826,10.321-8.313,16.719
			c-0.152,1.99-0.026,3.98,0.305,5.932c-1.554-0.032-3.113,0.05-4.69,0.337c-10.109,1.895-17.866,10.572-18.647,20.815
			c-0.623,8.168,3.324,16.259,10.141,20.796c3.342,2.203,7.008,3.465,10.997,3.786c1.978-0.108,3.956-0.216,5.934-0.323
			c1.889-0.366,3.663-0.962,5.351-1.739c0.921,3.143,2.494,6.093,4.678,8.571c2.627,2.953,5.808,5.078,9.539,6.376
			c3.738,1.274,7.552,1.556,11.437,0.847c2.412-0.707,4.856-1.38,7.163-2.37c1.91-0.819,3.628-2.004,5.159-3.414
			c0.649,0.567,1.301,1.134,1.95,1.7c3.879,2.558,8.135,4.023,12.766,4.397c2.297-0.126,4.594-0.25,6.891-0.376
			c4.795-0.927,9.035-2.995,12.717-6.203c2.1-1.85,3.865-4.038,5.273-6.429c3.274,1.645,6.776,2.629,10.512,2.93
			c2.437,0.391,4.901,0.265,7.392-0.381c5.937-1.102,9.044-3.143,13.781-6.716c3.914-2.955,6.907-8.532,8.587-12.963
			C1030.156,246.817,1030.051,241.686,1029.371,236.162z"/>
		<rect x="15" y="103" style="fill:none;" width="1920" height="1080"/>
		<path style="fill:#D1D3D3;" d="M1920,327.101h-30.096V408.5H1868.5V479h-71V337h-5.5v58.5h-12.5V369h-6v110h-34v27.5H1586V573h-98
			v-56h-44.506v58h-16.307v-15H1381.5V332H1353v70.5h-23.5v78h-36v29.833H1272V421h-16.5v-75h-7.5v49.5h-23.5v114.833h-107V438H1091
			v106.5c0,0-14-54.833-85-56.167V456.5h-27V444h-28v26c0,0-8-12-19-13.5v-17.667c0,0,26.5-17.333,0-17.333s-4.667,16.5-4.667,16.5
			v19c0,0-19,3-22.667,16.333V581h-71.333v35H714.667v-81l-24.441-24.441V593l-31.676-31.676v34.009h-39.727V524
			c0,0-16.323-24.167-40.49,0c-24.167,24.167,0,72,0,72H536v-87.333h-13.327v-24h-47.34v20.667h-6v45.627H437.77V441.333H416V616
			h-15.667v-41.667h-49.387v48l-20.307-20.307v-70.693l-25.494-25.494V481h-28.938v239.179L240,477v37.5h-19.5v20.112V599.5H179v-83
			h-14.002v74L124.5,517c0,0,16.5-34-6-34.5s-6,33.5-6,33.5v61.5c0,0-26,3.5-26,0s0-29.5,0-29.5h-26v-21.5h-22V610H18v-46
			l-18.765-18.765V1080H1920V327.101z"/>
		<line style="fill:#4753A4;stroke:#566AB2;stroke-miterlimit:10;" x1="486.901" y1="473.157" x2="486.901" y2="485.614"/>
		<rect x="427.926" y="640.642" style="fill:#343896;" width="6.228" height="49.438"/>
		<rect x="416.637" y="640.642" style="fill:#815F9F;" width="15.376" height="49.438"/>
		<rect x="427.926" y="685.642" style="fill:#343896;" width="6.228" height="49.438"/>
		<rect x="416.637" y="685.642" style="fill:#815F9F;" width="15.376" height="49.438"/>
		<rect x="427.926" y="733.142" style="fill:#343896;" width="6.228" height="49.438"/>
		<rect x="416.637" y="733.142" style="fill:#815F9F;" width="15.376" height="49.438"/>
		<rect x="427.926" y="770.975" style="fill:#343896;" width="6.228" height="49.438"/>
		<rect x="416.637" y="770.975" style="fill:#815F9F;" width="15.376" height="49.438"/>
		<rect x="427.926" y="773.308" style="fill:#343896;" width="6.228" height="49.438"/>
		<rect x="416.637" y="773.308" style="fill:#815F9F;" width="15.376" height="49.438"/>
		<rect x="427.926" y="773.308" style="fill:#343896;" width="6.228" height="49.438"/>
		<rect x="416.637" y="773.308" style="fill:#815F9F;" width="15.376" height="49.438"/>
		<ellipse style="fill:#343896;" cx="425.59" cy="610.862" rx="174.2" ry="31.337"/>
		<ellipse style="fill:#EEC9CF;" cx="425.444" cy="604.147" rx="174.2" ry="31.337"/>
		<path style="fill:#4753A4;stroke:#566AB2;stroke-miterlimit:10;" d="M378.942,620.14c0,0-54.369-0.908-76.168-18.815
			c0,0,10.77-91.09,48.14-87.327l7.305,3.171l61.078,37.443l45.675-41.263l34.256-19.464l17.777,4.542
			c0,0,22.448,20.372,16.998,107.569C534.003,605.996,468.346,618.713,378.942,620.14z"/>
		<path style="fill:#FAFBEF;" d="M350.201,513.025c-2.66,1.395,38.668,11.159,28.028,106.142c0,0,49.048-126.644,76.298-1.298
			c0,0-8.564-131.315,61.765-120.415c0,0-22.837-35.554-59.17,2.855s-31.688,51.652-63.062,34.516
			C363.517,518.142,352.861,511.63,350.201,513.025z"/>
		<path style="fill:#FAFBEF;" d="M601.088,489.604"/>
		<path style="fill:#6181C1;" d="M351.726,514.517"/>
		<path style="fill:#E1CA90;" d="M351.726,514.517"/>
		<polyline style="fill:#BA92B8;" points="460.43,465.079 516.291,466.572 487.096,477.147 459.457,465.079 		"/>
		<path style="fill:#6FB1E1;" d="M308.109,605.021"/>
		<path style="fill:#4753A4;stroke:#566AB2;stroke-miterlimit:10;" d="M311.412,606.824c0,0,8.503-80.031,38.665-92.884"/>
		<path style="fill:#4753A4;stroke:#566AB2;stroke-miterlimit:10;" d="M365.837,619.167c0,0,6.092-65.53-16.998-104.65
			c0,0-21.862,38.723-27.868,83.875c-0.528,3.966-0.933,7.982-1.19,12.026l14.496,4.238"/>
		<path style="fill:#4753A4;stroke:#566AB2;stroke-miterlimit:10;" d="M348.839,514.517"/>
		<path style="fill:#4753A4;stroke:#566AB2;stroke-miterlimit:10;" d="M352.303,617.917c0,0,5.036-81.99-3.464-103.4"/>
		<line style="fill:#4753A4;stroke:#566AB2;stroke-miterlimit:10;" x1="333.773" y1="614.537" x2="348.839" y2="513.498"/>
		<path style="fill:#4753A4;stroke:#566AB2;stroke-miterlimit:10;" d="M390.169,619.899c0.392-19.185,31.331-57.335,31.331-57.335
			s-15.762,28.121-14.205,56.603"/>
		<path style="fill:#EEC9CF;" d="M421.499,562.564"/>
		<path style="fill:#4753A4;stroke:#566AB2;stroke-miterlimit:10;" d="M442.77,617.186c0.441-22.288-21.271-54.622-21.271-54.622"/>
		<path style="fill:#6FB1E1;" d="M429.68,618.103"/>
		<line style="fill:#4753A4;stroke:#566AB2;stroke-miterlimit:10;" x1="427.991" y1="618.209" x2="421.499" y2="564.018"/>
		<path style="fill:#4753A4;stroke:#566AB2;stroke-miterlimit:10;" d="M515.46,497.334"/>
		<path style="fill:#4753A4;stroke:#566AB2;stroke-miterlimit:10;" d="M465.491,614.537
			c1.557-104.738,47.235-117.203,47.235-117.203s-29.475,39.59-32.71,116.363"/>
		<path style="fill:#6FB1E1;" d="M515.46,497.334"/>
		<path style="fill:#6FB1E1;" d="M512.725,497.334"/>
		<path style="fill:#4753A4;stroke:#566AB2;stroke-miterlimit:10;" d="M512.725,497.334c0,0-19.596,95.038-16.871,113.528"/>
		<path style="fill:#6FB1E1;" d="M511.814,499.53"/>
		<path style="fill:#4753A4;stroke:#566AB2;stroke-miterlimit:10;" d="M511.814,499.53c0,0,9.343,47.396,9.343,107.294"/>
		<g>
			<polygon style="fill:#BFB2D7;" points="934.826,307.983 1017.421,283.658 1017.421,477.96 985.77,475.909 934.826,319.412 			"/>
			<rect x="932.53" y="255.817" style="fill:#4D427A;" width="4.591" height="154.738"/>
			<rect x="804.168" y="220.454" style="fill:#4D427A;" width="4.591" height="154.738"/>
			<polygon style="fill:#4D427A;" points="916.216,322.636 1002.964,299.972 1002.964,811.858 1020.157,811.858 1020.157,820.454 
				913.091,820.454 913.091,807.95 918.756,807.95 			"/>
			<polygon style="fill:#4D427A;" points="857.604,811.858 857.604,321.073 771.638,292.939 771.638,811.858 759.916,811.858 
				759.916,820.454 872.452,820.454 872.452,811.955 			"/>
			<rect x="834.891" y="538.624" style="fill:#785CA7;" width="108.678" height="39.271"/>
			<path style="fill:#4D427A;" d="M844.22,387.989"/>
			<polygon style="fill:#BFB2D7;" points="757.18,281.314 840.411,307.104 840.411,475.909 757.18,450.119 			"/>
			<rect x="759.916" y="291.278" style="fill:#4D427A;" width="4.591" height="154.738"/>
			<rect x="832.596" y="314.43" style="fill:#4D427A;" width="4.591" height="154.738"/>
			<rect x="854.185" y="404.108" style="fill:#7D5EA8;" width="70.922" height="31.651"/>
			<rect x="854.185" y="672.848" style="fill:#7D5EA8;" width="70.922" height="31.651"/>
			<rect x="782.97" y="482.356" style="fill:#BDB1D7;" width="34.875" height="11.136"/>
			<rect x="782.97" y="501.112" style="fill:#BDB1D7;" width="34.875" height="11.136"/>
			<rect x="782.97" y="519.868" style="fill:#BDB1D7;" width="34.875" height="11.136"/>
			<rect x="961.153" y="329.963" style="fill:#BDB1D7;" width="34.875" height="11.136"/>
			<rect x="961.153" y="348.719" style="fill:#BDB1D7;" width="34.875" height="11.136"/>
			<rect x="961.153" y="367.475" style="fill:#BDB1D7;" width="34.875" height="11.136"/>
			<rect x="961.153" y="386.231" style="fill:#BDB1D7;" width="34.875" height="11.136"/>
			<rect x="961.153" y="404.987" style="fill:#BDB1D7;" width="34.875" height="11.136"/>
			<rect x="961.153" y="423.743" style="fill:#BDB1D7;" width="34.875" height="11.136"/>
			<rect x="961.153" y="442.499" style="fill:#BDB1D7;" width="34.875" height="11.136"/>
			<rect x="961.153" y="461.255" style="fill:#BDB1D7;" width="34.875" height="11.136"/>
			<rect x="961.153" y="480.011" style="fill:#BDB1D7;" width="34.875" height="11.136"/>
			<rect x="961.153" y="498.768" style="fill:#BDB1D7;" width="34.875" height="11.136"/>
			<rect x="961.153" y="517.524" style="fill:#BDB1D7;" width="34.875" height="11.136"/>
			<polyline style="fill:#BDB1D7;" points="969.562,536.28 996.028,536.28 996.028,547.416 961.153,547.416 961.153,536.28 
				969.562,536.28 			"/>
			<rect x="961.153" y="555.036" style="fill:#BDB1D7;" width="34.875" height="11.136"/>
			<rect x="961.153" y="573.792" style="fill:#BDB1D7;" width="34.875" height="11.136"/>
			<rect x="961.153" y="592.548" style="fill:#BDB1D7;" width="34.875" height="11.136"/>
			<rect x="961.153" y="611.304" style="fill:#BDB1D7;" width="34.875" height="11.136"/>
			<rect x="961.153" y="630.06" style="fill:#BDB1D7;" width="34.875" height="11.136"/>
			<rect x="782.97" y="538.624" style="fill:#BDB1D7;" width="34.875" height="11.136"/>
			<rect x="782.97" y="557.38" style="fill:#BDB1D7;" width="34.875" height="11.136"/>
			<rect x="782.97" y="576.136" style="fill:#BDB1D7;" width="34.875" height="11.136"/>
			<rect x="782.97" y="594.893" style="fill:#BDB1D7;" width="34.875" height="11.136"/>
			<rect x="782.97" y="613.649" style="fill:#BDB1D7;" width="34.875" height="11.136"/>
			<rect x="782.97" y="632.405" style="fill:#BDB1D7;" width="34.875" height="11.136"/>
			<rect x="782.97" y="651.161" style="fill:#BDB1D7;" width="34.875" height="11.136"/>
			<rect x="782.97" y="669.917" style="fill:#BDB1D7;" width="34.875" height="11.136"/>
			<rect x="782.97" y="688.673" style="fill:#BDB1D7;" width="34.875" height="11.136"/>
			<rect x="782.97" y="707.429" style="fill:#BDB1D7;" width="34.875" height="11.136"/>
			<rect x="782.97" y="726.185" style="fill:#BDB1D7;" width="34.875" height="11.136"/>
			<rect x="782.97" y="744.941" style="fill:#BDB1D7;" width="34.875" height="11.136"/>
			<rect x="782.97" y="763.697" style="fill:#BDB1D7;" width="34.875" height="11.136"/>
			<rect x="782.97" y="782.454" style="fill:#BDB1D7;" width="34.875" height="11.136"/>
			<rect x="961.153" y="651.161" style="fill:#BDB1D7;" width="34.875" height="43.08"/>
			<rect x="963.497" y="704.499" style="fill:#BDB1D7;" width="32.53" height="98.176"/>
			<rect x="825.757" y="482.356" style="fill:#785CA7;" width="9.134" height="334.972"/>
			<rect x="943.569" y="344.909" style="fill:#785CA7;" width="10.55" height="472.419"/>
			<polygon style="fill:#BDB1D7;" points="834.891,566.172 889.23,566.172 912.59,542.813 834.891,542.813 			"/>
			<polygon style="fill:#BDB1D7;" points="922.029,542.813 900.049,566.172 943.569,566.172 943.569,542.813 			"/>
		</g>
		<g>
			<path style="fill:#386FB6;" d="M1382.178,766.644c0,0-0.459-0.818-1.206-2.3c-6.753-13.4-37.042-81.118,35.423-90.23
				c80.482-10.12-67.47-30.843-31.807-82.41c35.663-51.566-41.928,8.675-41.928,8.675s54.94,61.205-23.133,111.807
				c-78.072,50.602-68.434-19.277-63.614,5.301c4.819,24.578,86.265-1.446,111.325,62.41"/>
			<path style="fill:#FFFFFF;" d="M1325.792,823.993h186.024c0,0-7.229-88.193-93.012-88.193
				C1333.021,735.8,1325.792,823.993,1325.792,823.993z"/>
			<rect x="1192.78" y="700.62" style="fill:#386FB6;" width="119.036" height="47.711"/>
			<path style="fill:#FFFDFE;" d="M1186.515,701.905h130.12c0,0-2.932-45.783-63.876-45.783s-66.245,43.373-66.245,43.373"/>
			<path style="fill:#FFFDFE;" d="M1186.515,748.33h130.12c0,0-2.932,45.783-63.876,45.783s-66.245-43.373-66.245-43.373"/>
			<rect x="1406.596" y="640.218" style="fill:#386FB6;" width="79.357" height="31.807"/>
			<path style="fill:#FFFDFE;" d="M1402.419,643.913h86.747c0,0-1.955-30.522-42.584-30.522s-44.163,28.916-44.163,28.916"/>
			<path style="fill:#FFFDFE;" d="M1402.419,672.025h86.747c0,0-1.955,30.522-42.584,30.522s-44.163-28.916-44.163-28.916"/>
			<rect x="1320.813" y="552.025" style="fill:#386FB6;" width="79.357" height="31.807"/>
			<path style="fill:#FFFDFE;" d="M1316.636,554.515h86.747c0,0-1.955-30.522-42.584-30.522c-40.629,0-44.163,28.916-44.163,28.916"
				/>
			<path style="fill:#FFFDFE;" d="M1316.636,583.832h86.747c0,0-1.955,30.522-42.584,30.522c-40.629,0-44.163-28.916-44.163-28.916"
				/>
			<rect x="1316.636" y="567.929" style="fill:#FFFDFE;" width="86.747" height="4.98"/>
			<rect x="1402.419" y="652.909" style="fill:#FFFDFE;" width="86.747" height="6.747"/>
			<circle style="fill:#386FB6;" cx="1365.07" cy="803.511" r="11.325"/>
			<circle style="fill:#386FB6;" cx="1418.804" cy="803.511" r="11.325"/>
			<circle style="fill:#386FB6;" cx="1465.07" cy="803.511" r="11.325"/>
		</g>
		<g>
			<rect x="104.348" y="461.074" style="fill:#8260A9;" width="6.624" height="246.952"/>
			<circle style="fill:#8260A9;" cx="107.841" cy="427.073" r="34.001"/>
			<ellipse style="fill:#8260A9;" cx="104.348" cy="766.493" rx="85.088" ry="77.256"/>
			<ellipse style="fill:#4F457D;" cx="104.933" cy="529.075" rx="62.409" ry="6.263"/>
			<ellipse style="fill:#4F457D;" cx="104.933" cy="555.918" rx="62.409" ry="6.263"/>
			<ellipse style="fill:#4F457D;" cx="104.933" cy="582.76" rx="62.409" ry="6.263"/>
			<ellipse style="fill:#4F457D;" cx="104.933" cy="609.603" rx="62.409" ry="6.263"/>
			<ellipse style="fill:#4F457D;" cx="104.933" cy="636.446" rx="62.409" ry="6.263"/>
			<ellipse style="fill:#4F457D;" cx="104.933" cy="663.288" rx="62.409" ry="6.263"/>
			<rect x="90.759" y="485.288" style="fill:#C0B6D6;" width="27.178" height="35.231"/>
			<rect x="95.203" y="494.683" style="fill:#8260A9;" width="14.26" height="18.622"/>
			<circle style="fill:#BDB1D7;" cx="140.5" cy="750.527" r="9.059"/>
			<ellipse style="fill:#BDB1D7;" cx="165.161" cy="750.527" rx="8.556" ry="9.059"/>
			<path style="fill:#4C427A;" d="M46.103,761.711h43.396c0,0,2.237-23.264-20.132-23.264s-23.264,21.139-23.264,21.139"/>
			<rect x="46.103" y="766.493" style="fill:#4C427A;" width="43.458" height="12.667"/>
			<rect x="72.61" y="420.362" style="fill:#4E4481;" width="17.448" height="12.75"/>
			<rect x="96.657" y="421.033" style="fill:#4E4481;" width="39.146" height="12.079"/>
			<path style="fill:#4E4481;" d="M78.314,415.889h53.014c0,0-0.809-19.349-23.668-20.244S78.314,415.889,78.314,415.889z"/>
			<rect x="103.032" y="377.079" style="fill:#4E4481;" width="3.915" height="15.099"/>
			<ellipse style="fill:#BAADD5;" cx="105.436" cy="360.414" rx="17.168" ry="16.665"/>
		</g>
		<path style="fill:#2B6934;" d="M300,821c0,0,5-67.75,36.375-41.75c0,0-0.708-24.112,22.958-20.014c0,0,16.329-31.13,53.998,4.151
			c0,0,37.336-4.453,38.669,24.747l115.928-4.567L642,783.776c0,0,27.333-69.442,40.333-17.442c0,0,52,2.379,56,24.189
			c4,21.81,50.3-39.255,84.15-14.056c33.85,25.199,23.85,30.866,23.85,30.866l4.917,8.542L847.375,821H300z"/>
		<rect y="844" style="fill:#3D96D2;" width="1920" height="236"/>
		<path style="fill:#F1F5F5;" d="M248.499,875.011l-25.5,3c0,0,23.442,8.199,38.985,19.026l44.972-2.378
			C286.793,887.603,253.766,876.156,248.499,875.011z"/>
		<path style="fill:#CACFD2;" d="M261.985,897.037c4.157,2.895,7.755,5.976,10.181,9.141l50.5-6c0,0-6.519-2.304-15.709-5.519
			L261.985,897.037z"/>
		<path style="fill:#2C3E52;" d="M369.666,920.178c-17.5,6.5-30,20-30,20h121.405l-35.564-23.148
			C410.315,916.245,382.13,915.548,369.666,920.178z"/>
		<path style="opacity:0.73;fill:#C1BEA9;" d="M255.666,996.433v15.745l122.5-1v-46.007l97.5-15.493l-13.97-9.093
			C347.193,944.833,278.885,981.538,255.666,996.433z"/>
		<path style="fill:#F1F5F5;" d="M461.071,940.178H339.666c0,0,12.5-13.5,30-20c12.464-4.629,40.648-3.933,55.841-3.148
			l-34.341-22.352l-148,5.5c-3,7-8.5,20-8.5,20c48,0,58,4.5,58,4.5l0.333,36h-37.333v35.755
			c23.219-14.895,91.527-51.599,206.03-55.848L461.071,940.178z"/>
		<g>
			<path style="fill:none;stroke:#6B85A0;stroke-width:2;stroke-miterlimit:10;" d="M306.166,979.178l17.5-30
				c0,0,87.5-38,232.5-24.5l-12,26"/>
			
				<line style="fill:none;stroke:#6B85A0;stroke-width:2;stroke-miterlimit:10;" x1="522.666" y1="949.678" x2="535.166" y2="923.678"/>
			
				<line style="fill:none;stroke:#6B85A0;stroke-width:2;stroke-miterlimit:10;" x1="498.166" y1="948.303" x2="510.666" y2="922.303"/>
			
				<line style="fill:none;stroke:#6B85A0;stroke-width:2;stroke-miterlimit:10;" x1="474.166" y1="948.053" x2="486.666" y2="922.053"/>
			
				<line style="fill:none;stroke:#6B85A0;stroke-width:2;stroke-miterlimit:10;" x1="450.166" y1="948.428" x2="462.666" y2="922.428"/>
			
				<line style="fill:none;stroke:#6B85A0;stroke-width:2;stroke-miterlimit:10;" x1="426.166" y1="950.053" x2="438.666" y2="924.053"/>
			
				<line style="fill:none;stroke:#6B85A0;stroke-width:2;stroke-miterlimit:10;" x1="402.166" y1="953.053" x2="414.666" y2="927.053"/>
			
				<line style="fill:none;stroke:#6B85A0;stroke-width:2;stroke-miterlimit:10;" x1="378.166" y1="957.178" x2="390.666" y2="931.178"/>
			
				<line style="fill:none;stroke:#6B85A0;stroke-width:2;stroke-miterlimit:10;" x1="354.166" y1="962.053" x2="366.666" y2="936.053"/>
			
				<line style="fill:none;stroke:#6B85A0;stroke-width:2;stroke-miterlimit:10;" x1="330.166" y1="968.844" x2="342.666" y2="942.844"/>
		</g>
		<path style="fill:#2C3D51;" d="M214.166,1011.754v6.591h30.333h24.667h236l19.548-30.44
			C499.391,997.334,425.867,1012.179,214.166,1011.754z"/>
		<path style="fill:#F1F5F5;" d="M257.223,1005.344h-43.057v6.409c211.701,0.426,285.225-14.419,310.548-23.849l27.118-42.227
			C551.833,945.678,348.511,923.289,257.223,1005.344z"/>
		<g>
			<defs>
				<path id="SVGID_5_" d="M257.223,1005.344h-43.057v6.409v6.591h30.333h24.667h236l19.548-30.44l27.118-42.227
					C551.833,945.678,348.511,923.289,257.223,1005.344z"/>
			</defs>
			<clipPath id="SVGID_6_">
				<use xlink:href="#SVGID_5_"  style="overflow:visible;"/>
			</clipPath>
			<path style="clip-path:url(#SVGID_6_);fill:none;stroke:#010101;stroke-width:2;stroke-miterlimit:10;" d="M537.833,978.344
				c0,0-14.667,33.333-342.667,31.333"/>
		</g>
		<g>
			<ellipse style="fill:#2C3E52;" cx="396.333" cy="962.178" rx="13.167" ry="5.167"/>
			<ellipse style="fill:#2C3E52;" cx="452.999" cy="962.178" rx="13.167" ry="5.167"/>
			<ellipse style="fill:#2C3E52;" cx="509.666" cy="962.178" rx="13.167" ry="5.167"/>
		</g>
		<g>
			<g>
				<path style="fill:#FEFAD2;" d="M1727.666,843.287l19.125,2.25c0,0-17.581,6.149-29.239,14.269l-33.729-1.784
					C1698.946,852.73,1723.716,844.145,1727.666,843.287z"/>
				<path style="fill:#C1BEA9;" d="M1717.552,859.806c-3.117,2.171-5.816,4.482-7.636,6.856l-37.875-4.5
					c0,0,4.889-1.728,11.782-4.14L1717.552,859.806z"/>
			</g>
			<g>
				<path style="fill:#010101;" d="M1636.791,877.161c13.125,4.875,22.5,15,22.5,15h-91.053l26.673-17.361
					C1606.305,874.212,1627.443,873.689,1636.791,877.161z"/>
				<path style="fill:#C1BEA9;" d="M1722.291,934.353v11.809l-91.875-0.75v-34.505l-73.125-11.62l10.477-6.82
					C1653.646,895.653,1704.877,923.182,1722.291,934.353z"/>
				<path style="fill:#FEFAD2;" d="M1568.238,892.161h91.053c0,0-9.375-10.125-22.5-15c-9.348-3.472-30.486-2.95-41.88-2.361
					l25.755-16.764l111,4.125c2.25,5.25,6.375,15,6.375,15c-36,0-43.5,3.375-43.5,3.375l-0.25,27h28v26.816
					c-17.414-11.171-68.646-38.7-154.523-41.886L1568.238,892.161z"/>
			</g>
			<g>
				<path style="fill:none;stroke:#6B85A0;stroke-width:2;stroke-miterlimit:10;" d="M1684.416,921.412l-13.125-22.5
					c0,0-65.625-28.5-174.375-18.375l9,19.5"/>
				
					<line style="fill:none;stroke:#6B85A0;stroke-width:2;stroke-miterlimit:10;" x1="1522.041" y1="899.287" x2="1512.666" y2="879.787"/>
				
					<line style="fill:none;stroke:#6B85A0;stroke-width:2;stroke-miterlimit:10;" x1="1540.416" y1="898.255" x2="1531.041" y2="878.755"/>
				
					<line style="fill:none;stroke:#6B85A0;stroke-width:2;stroke-miterlimit:10;" x1="1558.416" y1="898.068" x2="1549.041" y2="878.568"/>
				
					<line style="fill:none;stroke:#6B85A0;stroke-width:2;stroke-miterlimit:10;" x1="1576.416" y1="898.349" x2="1567.041" y2="878.849"/>
				
					<line style="fill:none;stroke:#6B85A0;stroke-width:2;stroke-miterlimit:10;" x1="1594.416" y1="899.568" x2="1585.041" y2="880.068"/>
				
					<line style="fill:none;stroke:#6B85A0;stroke-width:2;stroke-miterlimit:10;" x1="1612.416" y1="901.818" x2="1603.041" y2="882.318"/>
				
					<line style="fill:none;stroke:#6B85A0;stroke-width:2;stroke-miterlimit:10;" x1="1630.416" y1="904.912" x2="1621.041" y2="885.412"/>
				
					<line style="fill:none;stroke:#6B85A0;stroke-width:2;stroke-miterlimit:10;" x1="1648.416" y1="908.568" x2="1639.041" y2="889.068"/>
				
					<line style="fill:none;stroke:#6B85A0;stroke-width:2;stroke-miterlimit:10;" x1="1666.416" y1="913.662" x2="1657.041" y2="894.162"/>
			</g>
			<g>
				<g>
					<path style="fill:#010101;" d="M1753.416,945.844v4.943h-22.75h-18.5h-177l-14.661-22.83
						C1539.497,935.029,1594.641,946.163,1753.416,945.844z"/>
					<path style="fill:#FEFAD2;" d="M1721.124,941.037h32.293v4.807c-158.776,0.319-213.919-10.815-232.911-17.887l-20.339-31.67
						C1500.166,896.287,1652.657,879.495,1721.124,941.037z"/>
				</g>
				<g>
					<defs>
						<path id="SVGID_7_" d="M1721.124,941.037h32.293v4.807v4.943h-22.75h-18.5h-177l-14.661-22.83l-20.339-31.67
							C1500.166,896.287,1652.657,879.495,1721.124,941.037z"/>
					</defs>
					<clipPath id="SVGID_8_">
						<use xlink:href="#SVGID_7_"  style="overflow:visible;"/>
					</clipPath>
					<path style="clip-path:url(#SVGID_8_);fill:none;stroke:#010101;stroke-width:2;stroke-miterlimit:10;" d="M1510.666,920.786
						c0,0,11,25,257,23.5"/>
				</g>
			</g>
			<g>
				<ellipse style="fill:#010101;" cx="1616.791" cy="908.662" rx="9.875" ry="3.875"/>
				<ellipse style="fill:#010101;" cx="1574.291" cy="908.662" rx="9.875" ry="3.875"/>
				<ellipse style="fill:#010101;" cx="1531.791" cy="908.662" rx="9.875" ry="3.875"/>
			</g>
		</g>
		<path style="opacity:0.57;fill:#2C3E52;" d="M214.166,1018.344c0,0,225.833,12.011,291,0H214.166z"/>
		<g>
			<path style="fill:#EC2227;" d="M484,546.044c0,1.081-0.876,1.956-1.956,1.956h-1.087c-1.081,0-1.956-0.876-1.956-1.956v-0.087
				c0-1.081,0.876-1.956,1.956-1.956h1.087c1.081,0,1.956,0.876,1.956,1.956V546.044z"/>
			<path style="fill:#FBB03C;" d="M478.186,541.967c7.056-4.014,25.134-16.029,42.392-11.312c0,0,3.637,0.865,9.456,5.682
				c0,0,31.82-1.775,37.639,7.958c0,0-3.098,5.249-26.878,6.453c0,0-38.567,0.386-48.575,0.119c0,0-3.086,0.295-7.3-2.339
				C480.707,545.893,476.117,543.145,478.186,541.967z"/>
			<g>
				<path style="fill:#676767;" d="M503.42,537.252l-2.786-5.919c-5.492,1.57-10.536,3.954-14.667,6.182
					C497.899,538.494,503.42,537.252,503.42,537.252z"/>
				<path style="fill:#676767;" d="M505.618,531.927c0,0,3.584,6.125,8.116,6.125c0,0,10.824,0.719,16.246-1.758
					c-4.716-3.892-7.988-5.185-9.039-5.53C515.759,530.92,505.766,531.3,505.618,531.927z"/>
			</g>
			<path style="fill:#333333;" d="M517,541.5c0,0.276-0.224,0.5-0.5,0.5h-3c-0.276,0-0.5-0.224-0.5-0.5l0,0
				c0-0.276,0.224-0.5,0.5-0.5h3C516.776,541,517,541.224,517,541.5L517,541.5z"/>
			<circle style="fill:#FAF183;" cx="561.777" cy="544.471" r="1.615"/>
		</g>
		<g>
			<path style="fill:#EC2227;" d="M240,573.956c0-1.081-0.876-1.956-1.956-1.956h-1.087c-1.081,0-1.956,0.876-1.956,1.956v0.087
				c0,1.081,0.876,1.956,1.956,1.956h1.087c1.081,0,1.956-0.876,1.956-1.956V573.956z"/>
			<path style="fill:#30AF55;" d="M241.161,569.967c-7.056-4.014-25.134-16.029-42.392-11.312c0,0-3.638,0.865-9.456,5.682
				c0,0-31.82-1.775-37.639,7.958c0,0,3.098,5.249,26.878,6.453c0,0,38.567,0.386,48.575,0.119c0,0,3.086,0.295,7.3-2.339
				C238.64,573.893,243.23,571.145,241.161,569.967z"/>
			<g>
				<path style="fill:#676767;" d="M215.926,565.252l2.786-5.919c5.492,1.57,10.536,3.954,14.667,6.182
					C221.448,566.494,215.926,565.252,215.926,565.252z"/>
				<path style="fill:#676767;" d="M213.728,559.927c0,0-3.584,6.125-8.116,6.125c0,0-10.824,0.719-16.246-1.758
					c4.716-3.892,7.988-5.185,9.039-5.53C203.587,558.92,213.581,559.3,213.728,559.927z"/>
			</g>
			<path style="fill:#333333;" d="M206,569.5c0-0.276-0.224-0.5-0.5-0.5h-3c-0.276,0-0.5,0.224-0.5,0.5l0,0
				c0,0.276,0.224,0.5,0.5,0.5h3C205.776,570,206,569.776,206,569.5L206,569.5z"/>
			<circle style="fill:#FAF183;" cx="157.57" cy="572.471" r="1.615"/>
		</g>
		<g>
			<path style="fill:#FFFFFF;" d="M859.899,662.704c-2.895-11.404-18.104-28.166-33.279-33.159
				c-2.834-0.933-5.666-1.456-8.418-1.456h-209.31c-0.313,0-0.567,0.254-0.567,0.568v3.022h-0.002v34.667h0.002v5.319h-3.943v-0.939
				h-2.82v0.939h-3.787v-10.679l0,0v-0.915l0,0v-26.086l0,0v-0.915l0,0v-4.146c0-0.494-0.4-0.894-0.893-0.894H362.393
				c-0.494,0-0.894,0.399-0.894,0.894v2.755v1.392v0.915v26.086v0.915v5.359v5.319h-3.864v-0.939h-2.82v0.939h-3.868v-5.319v-5.359
				v-0.915v-26.086v-0.915v-1.392v-2.755c0-0.494-0.4-0.894-0.891-0.894h-234.49c-0.494,0-0.894,0.399-0.894,0.894v2.755v1.392
				v0.915v26.086v0.915v5.359v6.53c0,0.493,0.4,0.893,0.894,0.893h28.348c-0.849,1.128,43.814,1.128,42.966,0h91.859
				c-0.848,1.128,43.814,1.128,42.967,0h28.349c0.491,0,0.891-0.4,0.891-0.893V672.8h3.868v0.939h2.82V672.8h3.864v0.077
				c0,0.493,0.4,0.893,0.894,0.893h28.348c-0.849,1.128,43.814,1.128,42.966,0h91.858c-0.848,1.128,43.816,1.128,42.967,0h28.35
				c0.492,0,0.893-0.4,0.893-0.893V672.8h3.787v0.939h2.82V672.8h3.943v0.403c0,0.313,0.254,0.566,0.567,0.566h23.096
				c-0.846,1.128,43.816,1.128,42.969,0h2.127h86.631h3.102c-0.848,1.128,43.814,1.128,42.967,0h5.203
				c-0.435,0.686,36.592,0.686,36.158,0c0.707,0,1.307,0,1.756,0C854.807,673.77,861.59,669.37,859.899,662.704z M172.843,673.743
				l-0.016,0.027l-0.298,0.474l-1.008,1.607h-12.249l-1.306-2.081L172.843,673.743z M306.348,675.851h-12.25l-1.008-1.607
				l-0.297-0.474l-0.017-0.027l14.876,0.027L306.348,675.851z M419.67,673.743l-0.016,0.027l-0.298,0.474l-1.008,1.607h-12.25
				l-1.306-2.081L419.67,673.743z M553.174,675.851h-12.25l-1.008-1.607l-0.297-0.474l-0.018-0.027l14.877,0.027L553.174,675.851z
				 M659.598,675.851h-12.252l-1.305-2.081h14.859L659.598,675.851z M850.559,648.731c-0.662,0-6.17,0-7.447,0
				c-1.277,0-11.49-4.396-12.201-4.396c-0.709,0-6.219,0-6.666,0c-0.449,0-0.428-0.27-0.428-0.615c0-0.3,0-7.436,0-9.732v-0.915
				h0.266c0.146-0.049,0.367-0.087,0.705-0.095c0.828-0.019,7.77,1.526,13.156,4.671
				C844.909,641.714,851.221,648.731,850.559,648.731z"/>
			<path style="fill:#DD4A5F;" d="M350.947,672.877v-1.211v-5.319v-3.084H114.672v3.084v6.53c0,0.493,0.4,0.893,0.894,0.893h28.348
				h14.052l14.877-0.027l-0.016,0.027h14.053h91.859h14.054l-0.017-0.027l14.876,0.027h14.054h28.349
				C350.547,673.77,350.947,673.37,350.947,672.877z"/>
			<path style="fill:#DD4A5F;" d="M597.774,672.877v-9.614H361.499v3.084v5.319v1.211c0,0.493,0.4,0.893,0.894,0.893h28.348h14.052
				l14.877-0.027l-0.016,0.027h14.053h91.858h14.055l-0.018-0.027l14.877,0.027h14.053h28.35
				C597.374,673.77,597.774,673.37,597.774,672.877z"/>
			<g>
				<path style="fill:#5C4871;" d="M164.998,647.716c0,2.137-1.732,3.869-3.869,3.869h-30.157c-2.137,0-3.869-1.732-3.869-3.869l0,0
					c0-2.137,1.732-3.869,3.869-3.869h30.157C163.265,643.847,164.998,645.579,164.998,647.716L164.998,647.716z"/>
				<path style="fill:#5C4871;" d="M208.384,647.716c0,2.137-1.732,3.869-3.869,3.869h-30.157c-2.137,0-3.869-1.732-3.869-3.869l0,0
					c0-2.137,1.732-3.869,3.869-3.869h30.157C206.651,643.847,208.384,645.579,208.384,647.716L208.384,647.716z"/>
				<path style="fill:#5C4871;" d="M251.77,647.716c0,2.137-1.732,3.869-3.869,3.869h-30.157c-2.137,0-3.869-1.732-3.869-3.869l0,0
					c0-2.137,1.732-3.869,3.869-3.869h30.157C250.038,643.847,251.77,645.579,251.77,647.716L251.77,647.716z"/>
				<path style="fill:#5C4871;" d="M295.156,647.716c0,2.137-1.732,3.869-3.869,3.869H261.13c-2.137,0-3.869-1.732-3.869-3.869l0,0
					c0-2.137,1.732-3.869,3.869-3.869h30.157C293.424,643.847,295.156,645.579,295.156,647.716L295.156,647.716z"/>
				<path style="fill:#5C4871;" d="M338.543,647.716c0,2.137-1.732,3.869-3.869,3.869h-30.157c-2.137,0-3.869-1.732-3.869-3.869l0,0
					c0-2.137,1.732-3.869,3.869-3.869h30.157C336.81,643.847,338.543,645.579,338.543,647.716L338.543,647.716z"/>
			</g>
			<g>
				<path style="fill:#5C4871;" d="M413.331,647.716c0,2.137-1.732,3.869-3.869,3.869h-30.157c-2.137,0-3.869-1.732-3.869-3.869l0,0
					c0-2.137,1.732-3.869,3.869-3.869h30.157C411.599,643.847,413.331,645.579,413.331,647.716L413.331,647.716z"/>
				<path style="fill:#5C4871;" d="M456.717,647.716c0,2.137-1.732,3.869-3.869,3.869h-30.157c-2.137,0-3.869-1.732-3.869-3.869l0,0
					c0-2.137,1.732-3.869,3.869-3.869h30.157C454.985,643.847,456.717,645.579,456.717,647.716L456.717,647.716z"/>
				<path style="fill:#5C4871;" d="M500.104,647.716c0,2.137-1.733,3.869-3.869,3.869h-30.157c-2.137,0-3.869-1.732-3.869-3.869l0,0
					c0-2.137,1.732-3.869,3.869-3.869h30.157C498.371,643.847,500.104,645.579,500.104,647.716L500.104,647.716z"/>
				<path style="fill:#5C4871;" d="M543.489,647.716c0,2.137-1.732,3.869-3.869,3.869h-30.156c-2.137,0-3.869-1.732-3.869-3.869l0,0
					c0-2.137,1.732-3.869,3.869-3.869h30.156C541.756,643.847,543.489,645.579,543.489,647.716L543.489,647.716z"/>
				<path style="fill:#5C4871;" d="M586.876,647.716c0,2.137-1.732,3.869-3.869,3.869H552.85c-2.137,0-3.869-1.732-3.869-3.869l0,0
					c0-2.137,1.732-3.869,3.869-3.869h30.156C585.143,643.847,586.876,645.579,586.876,647.716L586.876,647.716z"/>
			</g>
			<g>
				<path style="fill:#5C4871;" d="M656.717,647.716c0,2.137-1.732,3.869-3.869,3.869h-30.156c-2.139,0-3.869-1.732-3.869-3.869l0,0
					c0-2.137,1.731-3.869,3.869-3.869h30.156C654.985,643.847,656.717,645.579,656.717,647.716L656.717,647.716z"/>
				<path style="fill:#5C4871;" d="M700.104,647.716c0,2.137-1.732,3.869-3.869,3.869h-30.158c-2.137,0-3.869-1.732-3.869-3.869l0,0
					c0-2.137,1.732-3.869,3.869-3.869h30.158C698.372,643.847,700.104,645.579,700.104,647.716L700.104,647.716z"/>
				<path style="fill:#5C4871;" d="M743.489,647.716c0,2.137-1.732,3.869-3.869,3.869h-30.156c-2.137,0-3.869-1.732-3.869-3.869l0,0
					c0-2.137,1.732-3.869,3.869-3.869h30.156C741.756,643.847,743.489,645.579,743.489,647.716L743.489,647.716z"/>
				<path style="fill:#5C4871;" d="M786.875,647.716c0,2.137-1.732,3.869-3.869,3.869H752.85c-2.137,0-3.869-1.732-3.869-3.869l0,0
					c0-2.137,1.732-3.869,3.869-3.869h30.156C785.143,643.847,786.875,645.579,786.875,647.716L786.875,647.716z"/>
			</g>
			<path style="fill:#DD4A5F;" d="M860,663.263H608.323v3.084h0.002v5.319h-0.002v1.134h0.002v0.403
				c0,0.313,0.254,0.566,0.567,0.566h23.096h14.055h14.859h14.055h2.127h86.631h3.102h42.967h5.203h36.158c0.707,0,1.307,0,1.756,0
				C854.753,673.77,861.184,669.612,860,663.263z"/>
			<g>
				<polygon style="fill:none;" points="406.099,675.851 418.348,675.851 419.356,674.244 419.654,673.77 419.67,673.743 
					404.793,673.77 				"/>
				<polygon style="fill:none;" points="172.529,674.244 172.827,673.77 172.843,673.743 157.966,673.77 				"/>
				<polygon style="fill:none;" points="292.794,673.77 293.09,674.244 294.098,675.851 306.348,675.851 307.653,673.77 
					292.777,673.743 				"/>
				<polygon style="fill:none;" points="539.62,673.77 539.917,674.244 540.924,675.851 553.174,675.851 554.479,673.77 
					539.602,673.743 				"/>
				<polygon style="fill:none;" points="647.346,675.851 659.598,675.851 660.901,673.77 646.042,673.77 				"/>
				<path style="fill:#5C4871;" d="M824.245,644.334c0.447,0,5.957,0,6.666,0c0.711,0,10.924,4.396,12.201,4.396
					c1.277,0,6.785,0,7.447,0c0.662,0-5.65-7.017-12.615-11.083c-5.387-3.144-12.328-4.689-13.156-4.671
					c-0.338,0.008-0.559,0.046-0.705,0.095h-0.266v0.915c0,2.297,0,9.433,0,9.732C823.817,644.065,823.795,644.334,824.245,644.334z
					"/>
			</g>
			<g>
				<polygon style="fill:#5C4871;" points="350.947,633.987 350.947,633.072 350.947,631.847 114.672,631.847 114.672,633.072 
					114.672,633.987 114.672,634.18 350.947,634.18 				"/>
				<polygon style="fill:#5C4871;" points="597.774,633.987 597.774,633.987 597.774,633.072 597.774,633.072 597.774,631.847 
					361.499,631.847 361.499,633.072 361.499,633.987 361.499,634.18 597.774,634.18 				"/>
				<rect x="608.323" y="631.847" style="fill:#5C4871;" width="204.779" height="2.333"/>
				<rect x="810.772" y="631.847" style="fill:#5C4871;" width="2.33" height="26.291"/>
				<path style="fill:#5C4871;" d="M857.038,655.808h-46.264v2.33h47.451C857.868,657.372,857.471,656.594,857.038,655.808z"/>
			</g>
			<rect x="0" y="643.367" style="fill:none;" width="865.333" height="75.176"/>
		</g>
		<rect y="673.288" style="fill:#2C3E52;" width="1734.916" height="14.091"/>
		<g>
			<path style="fill:#C6CC37;" d="M771.28,753.315c0,23.472-19.028,42.5-42.5,42.5c-23.471,0-42.5-19.028-42.5-42.5
				c0-23.472,19.029-42.5,42.5-42.5C752.252,710.815,771.28,729.843,771.28,753.315"/>
			<path style="fill:#B6BD34;" d="M753.754,748.057c0,17.665-14.32,31.984-31.984,31.984c-17.665,0-31.985-14.319-31.985-31.984
				c0-17.665,14.32-31.984,31.985-31.984C739.434,716.073,753.754,730.392,753.754,748.057"/>
			<path style="fill:#9FB23A;" d="M755.312,744.53c0,5.277-4.278,9.555-9.555,9.555c-5.277,0-9.555-4.278-9.555-9.555
				s4.278-9.555,9.555-9.555C751.034,734.976,755.312,739.254,755.312,744.53"/>
			<path style="fill:#9FB23A;" d="M760.533,760.499c0,3.921-3.178,7.099-7.098,7.099c-3.921,0-7.098-3.178-7.098-7.099
				c0-3.92,3.178-7.098,7.098-7.098C757.355,753.401,760.533,756.579,760.533,760.499"/>
			<path style="fill:#9FB23A;" d="M755.927,776.468c0,3.92-3.178,7.098-7.098,7.098c-3.92,0-7.098-3.178-7.098-7.098
				c0-3.92,3.178-7.099,7.098-7.099C752.749,769.369,755.927,772.547,755.927,776.468"/>
			<path style="fill:#9FB23A;" d="M716.006,766.334c0,3.92-3.178,7.098-7.098,7.098c-3.92,0-7.098-3.178-7.098-7.098
				c0-3.92,3.178-7.098,7.098-7.098C712.828,759.236,716.006,762.414,716.006,766.334"/>
			<path style="fill:#9FB23A;" d="M716.927,750.673c0,3.92-3.178,7.097-7.098,7.097c-3.921,0-7.098-3.178-7.098-7.097
				c0-3.921,3.178-7.098,7.098-7.098C713.749,743.574,716.927,746.752,716.927,750.673"/>
			<path style="fill:#9FB23A;" d="M733.51,734.398c0,3.92-3.178,7.097-7.098,7.097c-3.92,0-7.098-3.177-7.098-7.097
				c0-3.921,3.178-7.098,7.098-7.098C730.332,727.299,733.51,730.477,733.51,734.398"/>
			<polygon style="fill:#432517;" points="745.855,763.18 754.211,764.558 747.692,761.987 757.517,756.293 728.448,766.336 
				727.831,757.191 749.62,746.651 739.978,749.224 739.794,744.448 738.968,749.498 727.593,753.658 726.296,734.438 
				724.249,758.331 713.44,753.355 712.797,748.764 712.521,753.079 705.083,750.233 723.957,761.752 722.742,775.936 
				712.246,770.251 710.042,761.711 710.042,769.149 703.155,766.67 722.416,779.748 718.269,824.357 732.356,824.245 
				729.906,787.939 752.742,775.761 746.957,777.345 746.681,771.628 745.579,777.689 729.6,783.413 728.864,772.503 			"/>
		</g>
		<g>
			<path style="fill:#C6CC37;" d="M231.936,753.315c0,23.472-19.028,42.5-42.5,42.5c-23.471,0-42.5-19.028-42.5-42.5
				c0-23.472,19.029-42.5,42.5-42.5C212.908,710.815,231.936,729.843,231.936,753.315"/>
			<path style="fill:#B6BD34;" d="M214.411,748.057c0,17.665-14.32,31.984-31.984,31.984c-17.665,0-31.985-14.319-31.985-31.984
				c0-17.665,14.32-31.984,31.985-31.984C200.091,716.073,214.411,730.392,214.411,748.057"/>
			<path style="fill:#9FB23A;" d="M215.969,744.53c0,5.277-4.278,9.555-9.555,9.555c-5.277,0-9.555-4.278-9.555-9.555
				s4.278-9.555,9.555-9.555C211.691,734.976,215.969,739.254,215.969,744.53"/>
			<path style="fill:#9FB23A;" d="M221.189,760.499c0,3.921-3.178,7.099-7.098,7.099c-3.921,0-7.098-3.178-7.098-7.099
				c0-3.92,3.178-7.098,7.098-7.098C218.011,753.401,221.189,756.579,221.189,760.499"/>
			<path style="fill:#9FB23A;" d="M216.583,776.468c0,3.92-3.178,7.098-7.098,7.098c-3.92,0-7.098-3.178-7.098-7.098
				c0-3.92,3.178-7.099,7.098-7.099C213.405,769.369,216.583,772.547,216.583,776.468"/>
			<path style="fill:#9FB23A;" d="M176.663,766.334c0,3.92-3.178,7.098-7.098,7.098c-3.92,0-7.098-3.178-7.098-7.098
				c0-3.92,3.178-7.098,7.098-7.098C173.484,759.236,176.663,762.414,176.663,766.334"/>
			<path style="fill:#9FB23A;" d="M177.584,750.673c0,3.92-3.178,7.097-7.098,7.097c-3.921,0-7.098-3.178-7.098-7.097
				c0-3.921,3.178-7.098,7.098-7.098C174.406,743.574,177.584,746.752,177.584,750.673"/>
			<path style="fill:#9FB23A;" d="M194.166,734.398c0,3.92-3.178,7.097-7.098,7.097c-3.92,0-7.098-3.177-7.098-7.097
				c0-3.921,3.178-7.098,7.098-7.098C190.988,727.299,194.166,730.477,194.166,734.398"/>
			<polygon style="fill:#432517;" points="206.511,763.18 214.868,764.558 208.348,761.987 218.173,756.293 189.104,766.336 
				188.488,757.191 210.276,746.651 200.634,749.224 200.45,744.448 199.625,749.498 188.249,753.658 186.952,734.438 
				184.906,758.331 174.097,753.355 173.454,748.764 173.178,753.079 165.74,750.233 184.613,761.752 183.399,775.936 
				172.903,770.251 170.698,761.711 170.698,769.149 163.812,766.67 183.072,779.748 178.925,824.357 193.013,824.245 
				190.562,787.939 213.399,775.761 207.613,777.345 207.338,771.628 206.236,777.689 190.257,783.413 189.52,772.503 			"/>
		</g>
		<g>
			<path style="fill:#C6CC37;" d="M630.666,778.69c0,13.807-11.193,25-25,25c-13.807,0-25-11.193-25-25c0-13.807,11.193-25,25-25
				C619.473,753.69,630.666,764.882,630.666,778.69"/>
			<path style="fill:#B6BD34;" d="M620.357,775.597c0,10.391-8.424,18.814-18.814,18.814c-10.391,0-18.815-8.423-18.815-18.814
				c0-10.391,8.424-18.814,18.815-18.814C611.933,756.782,620.357,765.206,620.357,775.597"/>
			<path style="fill:#9FB23A;" d="M621.273,773.522c0,3.104-2.516,5.621-5.62,5.621c-3.104,0-5.621-2.517-5.621-5.621
				c0-3.104,2.516-5.62,5.621-5.62C618.757,767.902,621.273,770.418,621.273,773.522"/>
			<path style="fill:#9FB23A;" d="M624.344,782.916c0,2.306-1.869,4.176-4.175,4.176c-2.306,0-4.176-1.869-4.176-4.176
				c0-2.306,1.869-4.175,4.176-4.175C622.475,778.74,624.344,780.61,624.344,782.916"/>
			<path style="fill:#9FB23A;" d="M621.635,792.309c0,2.306-1.869,4.175-4.175,4.175c-2.306,0-4.176-1.869-4.176-4.175
				c0-2.306,1.869-4.176,4.176-4.176C619.766,788.133,621.635,790.003,621.635,792.309"/>
			<path style="fill:#9FB23A;" d="M598.152,786.348c0,2.306-1.869,4.175-4.175,4.175c-2.306,0-4.176-1.869-4.176-4.175
				c0-2.306,1.869-4.175,4.176-4.175C596.283,782.173,598.152,784.042,598.152,786.348"/>
			<path style="fill:#9FB23A;" d="M598.694,777.135c0,2.306-1.869,4.175-4.175,4.175c-2.306,0-4.176-1.869-4.176-4.175
				c0-2.306,1.869-4.176,4.176-4.176C596.825,772.96,598.694,774.829,598.694,777.135"/>
			<path style="fill:#9FB23A;" d="M608.449,767.562c0,2.306-1.869,4.175-4.175,4.175c-2.306,0-4.176-1.869-4.176-4.175
				c0-2.306,1.869-4.176,4.176-4.176C606.579,763.386,608.449,765.256,608.449,767.562"/>
			<polygon style="fill:#432517;" points="615.71,784.493 620.626,785.303 616.791,783.791 622.57,780.442 605.471,786.349 
				605.108,780.97 617.925,774.77 612.253,776.283 612.145,773.474 611.659,776.445 604.968,778.891 604.205,767.586 
				603.001,781.64 596.643,778.713 596.265,776.012 596.102,778.551 591.727,776.877 602.829,783.653 602.115,791.996 
				595.941,788.652 594.644,783.629 594.644,788.004 590.593,786.546 601.923,794.238 599.483,820.479 607.77,820.413 
				606.329,799.057 619.762,791.893 616.359,792.825 616.197,789.462 615.548,793.028 606.149,796.394 605.716,789.977 			"/>
		</g>
		<g>
			<path style="fill:#C6CC37;" d="M294.237,775.554c0,13.807-11.193,25-25,25c-13.807,0-25-11.193-25-25c0-13.807,11.193-25,25-25
				C283.044,750.554,294.237,761.747,294.237,775.554"/>
			<path style="fill:#B6BD34;" d="M283.928,772.461c0,10.391-8.424,18.814-18.814,18.814c-10.391,0-18.815-8.423-18.815-18.814
				c0-10.391,8.424-18.814,18.815-18.814C275.504,753.647,283.928,762.07,283.928,772.461"/>
			<path style="fill:#9FB23A;" d="M284.844,770.387c0,3.104-2.516,5.621-5.62,5.621c-3.104,0-5.621-2.517-5.621-5.621
				c0-3.104,2.516-5.62,5.621-5.62C282.328,764.766,284.844,767.283,284.844,770.387"/>
			<path style="fill:#9FB23A;" d="M287.915,779.78c0,2.306-1.869,4.176-4.175,4.176c-2.306,0-4.176-1.869-4.176-4.176
				c0-2.306,1.869-4.175,4.176-4.175C286.046,775.605,287.915,777.474,287.915,779.78"/>
			<path style="fill:#9FB23A;" d="M285.206,789.173c0,2.306-1.869,4.175-4.175,4.175c-2.306,0-4.176-1.869-4.176-4.175
				c0-2.306,1.869-4.176,4.176-4.176C283.336,784.997,285.206,786.867,285.206,789.173"/>
			<path style="fill:#9FB23A;" d="M261.723,783.212c0,2.306-1.869,4.175-4.175,4.175c-2.306,0-4.176-1.869-4.176-4.175
				c0-2.306,1.869-4.175,4.176-4.175C259.853,779.037,261.723,780.906,261.723,783.212"/>
			<path style="fill:#9FB23A;" d="M262.265,774c0,2.306-1.869,4.175-4.175,4.175c-2.306,0-4.176-1.869-4.176-4.175
				c0-2.306,1.869-4.176,4.176-4.176C260.395,769.824,262.265,771.693,262.265,774"/>
			<path style="fill:#9FB23A;" d="M272.019,764.426c0,2.306-1.869,4.175-4.175,4.175c-2.306,0-4.176-1.869-4.176-4.175
				c0-2.306,1.869-4.176,4.176-4.176C270.15,760.251,272.019,762.12,272.019,764.426"/>
			<polygon style="fill:#432517;" points="279.281,781.357 284.197,782.167 280.361,780.655 286.141,777.306 269.042,783.213 
				268.679,777.834 281.496,771.634 275.824,773.147 275.716,770.338 275.23,773.309 268.538,775.755 267.776,764.45 
				266.572,778.505 260.213,775.578 259.836,772.877 259.673,775.415 255.298,773.741 266.4,780.517 265.685,788.86 
				259.511,785.516 258.214,780.493 258.214,784.868 254.163,783.41 265.493,791.103 263.054,817.343 271.341,817.278 
				269.899,795.921 283.332,788.758 279.929,789.69 279.767,786.326 279.119,789.892 269.72,793.259 269.286,786.841 			"/>
		</g>
		<g>
			<path style="fill:#C6CC37;" d="M855.965,779.731c-3.023,9.274-15.387,12.852-23.846,9.274
				c-6.181-2.603-11.387-11.062-8.133-17.244c3.253-6.183,9.759-10.412,16.591-11.062c8.785-0.326,17.244,7.483,16.042,16.161
				C856.516,777.807,856.303,778.755,855.965,779.731"/>
			<path style="fill:#9FB23A;" d="M848.647,782.048c-2.043,6.266-10.396,8.683-16.114,6.266c-4.176-1.759-7.694-7.475-5.495-11.653
				c2.197-4.177,6.594-7.034,11.212-7.475c5.934-0.22,11.651,5.057,10.838,10.921C849.019,780.748,848.876,781.388,848.647,782.048"
				/>
			<path style="fill:#C6CC37;" d="M815.168,737.363c5.555-10.609,21.252-12.413,30.759-6.353
				c6.951,4.415,11.523,15.717,6.321,22.536c-5.202,6.817-13.942,10.608-22.344,9.998c-10.702-1.402-19.345-12.582-16.117-22.841
				C814.108,739.581,814.557,738.475,815.168,737.363"/>
			<path style="fill:#9FB23A;" d="M831.824,739.127c2.468-4.712,9.44-5.513,13.663-2.821c3.088,1.961,5.119,6.982,2.809,10.012
				c-2.311,3.028-6.195,4.711-9.926,4.442c-4.754-0.623-8.595-5.59-7.159-10.149C831.354,740.113,831.552,739.621,831.824,739.127"
				/>
			<path style="fill:#C6CC37;" d="M799.596,741.45c-3.022-9.273-15.386-12.851-23.844-9.273
				c-6.182,2.603-11.388,11.062-8.134,17.244c3.254,6.181,9.76,10.411,16.593,11.062c8.784,0.324,17.244-7.482,16.041-16.16
				C800.148,743.376,799.936,742.427,799.596,741.45"/>
			<path style="fill:#9FB23A;" d="M796.768,742.728c-1.799-5.522-9.161-7.652-14.199-5.522c-3.681,1.549-6.78,6.587-4.843,10.268
				c1.936,3.68,5.811,6.199,9.88,6.587c5.231,0.193,10.267-4.456,9.552-9.624C797.096,743.874,796.971,743.309,796.768,742.728"/>
			<path style="fill:#C6CC37;" d="M758.8,783.819c5.554,10.608,21.25,12.412,30.758,6.354c6.951-4.416,11.523-15.719,6.322-22.536
				c-5.202-6.818-13.942-10.608-22.346-9.999c-10.7,1.402-19.343,12.582-16.115,22.842
				C757.74,781.602,758.189,782.707,758.8,783.819"/>
			<path style="fill:#9FB23A;" d="M764.758,782.832c3.006,5.742,11.503,6.718,16.649,3.437c3.762-2.389,6.238-8.507,3.421-12.199
				c-2.815-3.689-7.547-5.739-12.094-5.413c-5.791,0.761-10.47,6.812-8.723,12.366C764.185,781.631,764.427,782.229,764.758,782.832
				"/>
			<path style="fill:#C6CC37;" d="M789.503,711.887c5.393-11.229,20.073-13.433,28.82-7.273c6.397,4.487,10.436,16.241,5.447,23.49
				c-4.988,7.247-13.219,11.396-21.045,10.925c-9.955-1.255-17.795-12.799-14.578-23.615
				C788.469,714.231,788.911,713.064,789.503,711.887"/>
			<path style="fill:#9FB23A;" d="M806.267,716.918c2.396-4.989,8.917-5.967,12.803-3.231c2.841,1.995,4.637,7.216,2.42,10.436
				c-2.215,3.22-5.873,5.062-9.35,4.855c-4.422-0.558-7.905-5.687-6.475-10.493C805.808,717.96,806.003,717.442,806.267,716.918"/>
			<path style="fill:#432517;" d="M769.93,769.002l20.866,9.926l-11.546,0.811l1.418,1.215l12.559-0.607l12.065,6.651l-0.232,37.018
				c2.399-0.098,4.796-0.186,7.195-0.247l-0.527-31.92l32.199-11.035c-0.351-0.58-0.55-1.253-0.592-1.939l-12.619,3.678
				l4.491-11.722h-1.213l-5.113,11.744l-17.667,5.988l-0.769-26.043l5.312-4.912l12.782-0.176l0.593-1.186H817.23l12.055-11.148
				l-0.405-1.823l-8.158,7.162l3.268-12.586l-0.989,0.395l-4.314,13.976l-8.039,7.058l-1.823-39.1h-1.823l-0.203,20.057
				l-9.723-8.914l-1.824,0.201l11.141,10.94l-0.767,25.665l-10.982-9.053l-1.013-8.713l-0.811-1.416v8.913l-7.495-4.862
				l-2.026-0.203l22.326,17.981l-0.147,12.055l-22.179-10.384l-3.04-7.293l-1.62-0.405l2.836,7.09l-11.75-3.646L769.93,769.002z"/>
		</g>
		<g>
			<path style="fill:#C6CC37;" d="M263.308,795.974c-1.97,6.043-10.026,8.375-15.538,6.043c-4.027-1.696-7.42-7.208-5.299-11.236
				c2.119-4.029,6.359-6.785,10.811-7.208c5.724-0.212,11.237,4.876,10.453,10.531C263.667,794.72,263.529,795.338,263.308,795.974"
				/>
			<path style="fill:#9FB23A;" d="M258.54,797.484c-1.331,4.083-6.775,5.658-10.5,4.083c-2.721-1.146-5.013-4.871-3.581-7.593
				c1.432-2.722,4.297-4.584,7.306-4.871c3.867-0.143,7.592,3.295,7.063,7.116C258.783,796.636,258.689,797.054,258.54,797.484"/>
			<path style="fill:#C6CC37;" d="M236.725,768.366c3.619-6.913,13.848-8.089,20.043-4.14c4.53,2.877,7.508,10.242,4.119,14.685
				c-3.389,4.442-9.085,6.912-14.56,6.515c-6.973-0.913-12.606-8.199-10.502-14.883
				C236.034,769.811,236.327,769.091,236.725,768.366"/>
			<path style="fill:#9FB23A;" d="M247.578,769.515c1.608-3.071,6.151-3.593,8.903-1.838c2.012,1.278,3.336,4.55,1.831,6.524
				c-1.506,1.973-4.037,3.07-6.468,2.894c-3.098-0.406-5.6-3.642-4.665-6.613C247.272,770.158,247.401,769.838,247.578,769.515"/>
			<path style="fill:#C6CC37;" d="M226.578,771.029c-1.969-6.042-10.026-8.374-15.537-6.042c-4.028,1.696-7.421,7.208-5.3,11.236
				c2.12,4.028,6.36,6.784,10.812,7.208c5.724,0.211,11.236-4.876,10.452-10.53C226.937,772.284,226.799,771.666,226.578,771.029"/>
			<path style="fill:#9FB23A;" d="M224.735,771.862c-1.173-3.598-5.97-4.986-9.252-3.598c-2.398,1.009-4.418,4.292-3.156,6.691
				c1.262,2.398,3.786,4.039,6.438,4.292c3.408,0.126,6.69-2.904,6.224-6.271C224.949,772.609,224.867,772.241,224.735,771.862"/>
			<path style="fill:#C6CC37;" d="M199.994,798.638c3.619,6.912,13.847,8.088,20.042,4.14c4.53-2.877,7.508-10.242,4.119-14.685
				c-3.39-4.443-9.085-6.912-14.561-6.516c-6.972,0.913-12.604,8.199-10.5,14.884C199.304,797.193,199.596,797.913,199.994,798.638"
				/>
			<path style="fill:#9FB23A;" d="M203.877,797.995c1.959,3.742,7.495,4.377,10.849,2.24c2.451-1.557,4.065-5.544,2.229-7.949
				c-1.834-2.404-4.917-3.74-7.881-3.527c-3.774,0.496-6.823,4.439-5.684,8.058C203.504,797.212,203.661,797.602,203.877,797.995"/>
			<path style="fill:#C6CC37;" d="M220.001,751.766c3.514-7.317,13.08-8.753,18.78-4.739c4.168,2.924,6.8,10.583,3.549,15.307
				c-3.25,4.722-8.614,7.426-13.714,7.119c-6.487-0.818-11.596-8.34-9.499-15.388C219.327,753.293,219.615,752.533,220.001,751.766"
				/>
			<path style="fill:#9FB23A;" d="M230.924,755.044c1.561-3.251,5.81-3.888,8.343-2.106c1.851,1.3,3.022,4.702,1.577,6.8
				c-1.443,2.098-3.827,3.298-6.092,3.163c-2.881-0.364-5.151-3.706-4.219-6.837C230.625,755.723,230.753,755.385,230.924,755.044"
				/>
			<path style="fill:#432517;" d="M207.247,788.983l13.596,6.468l-7.524,0.528l0.924,0.792l8.183-0.396l7.862,4.334l-0.151,24.121
				c1.563-0.064,3.125-0.121,4.688-0.161l-0.343-20.799l20.982-7.191c-0.229-0.378-0.358-0.816-0.386-1.264l-8.223,2.397
				l2.927-7.639h-0.791l-3.331,7.652l-11.512,3.902l-0.501-16.97l3.462-3.201l8.329-0.115l0.386-0.773h-7.755l7.855-7.264
				l-0.264-1.188l-5.316,4.667l2.13-8.201l-0.644,0.258l-2.811,9.107l-5.238,4.599l-1.188-25.478h-1.188l-0.132,13.069l-6.336-5.808
				l-1.189,0.131l7.26,7.129l-0.5,16.723l-7.156-5.899l-0.66-5.677l-0.528-0.923v5.808l-4.884-3.168l-1.32-0.132l14.548,11.717
				l-0.096,7.855l-14.452-6.767l-1.981-4.752l-1.055-0.264l1.848,4.62l-7.657-2.376L207.247,788.983z"/>
		</g>
		<g>
			<path style="fill:#C6CC37;" d="M800.008,796.098c-1.97,6.043-10.026,8.375-15.538,6.043c-4.027-1.696-7.42-7.208-5.299-11.236
				c2.119-4.029,6.359-6.785,10.811-7.208c5.724-0.212,11.237,4.876,10.453,10.531C800.367,794.844,800.228,795.462,800.008,796.098
				"/>
			<path style="fill:#9FB23A;" d="M795.239,797.608c-1.331,4.083-6.775,5.658-10.5,4.083c-2.721-1.146-5.013-4.871-3.581-7.593
				c1.432-2.722,4.297-4.584,7.306-4.871c3.867-0.143,7.592,3.295,7.063,7.116C795.482,796.76,795.389,797.178,795.239,797.608"/>
			<path style="fill:#C6CC37;" d="M773.424,768.49c3.619-6.913,13.848-8.089,20.043-4.14c4.53,2.877,7.508,10.242,4.119,14.685
				c-3.39,4.442-9.085,6.912-14.56,6.515c-6.973-0.913-12.606-8.199-10.502-14.883C772.734,769.935,773.026,769.215,773.424,768.49"
				/>
			<path style="fill:#9FB23A;" d="M784.278,769.639c1.608-3.071,6.151-3.593,8.903-1.838c2.012,1.278,3.336,4.55,1.831,6.524
				c-1.506,1.973-4.037,3.07-6.468,2.894c-3.098-0.406-5.6-3.643-4.665-6.613C783.971,770.282,784.1,769.961,784.278,769.639"/>
			<path style="fill:#C6CC37;" d="M763.277,771.153c-1.969-6.042-10.026-8.374-15.537-6.042c-4.028,1.696-7.421,7.208-5.3,11.236
				c2.12,4.028,6.36,6.784,10.812,7.208c5.724,0.211,11.236-4.876,10.452-10.53C763.637,772.408,763.499,771.79,763.277,771.153"/>
			<path style="fill:#9FB23A;" d="M761.434,771.986c-1.173-3.598-5.97-4.986-9.252-3.598c-2.398,1.009-4.418,4.292-3.156,6.691
				c1.262,2.398,3.786,4.039,6.438,4.292c3.408,0.126,6.69-2.904,6.224-6.271C761.648,772.733,761.567,772.365,761.434,771.986"/>
			<path style="fill:#C6CC37;" d="M736.694,798.762c3.619,6.912,13.847,8.088,20.042,4.14c4.53-2.877,7.508-10.242,4.119-14.685
				c-3.39-4.443-9.085-6.912-14.561-6.516c-6.972,0.913-12.604,8.199-10.5,14.884C736.003,797.317,736.296,798.037,736.694,798.762"
				/>
			<path style="fill:#9FB23A;" d="M740.576,798.119c1.959,3.742,7.495,4.377,10.849,2.24c2.451-1.557,4.065-5.544,2.229-7.949
				c-1.834-2.404-4.917-3.74-7.881-3.527c-3.774,0.496-6.823,4.439-5.684,8.058C740.203,797.336,740.36,797.726,740.576,798.119"/>
			<path style="fill:#C6CC37;" d="M756.701,751.89c3.514-7.317,13.08-8.753,18.78-4.739c4.168,2.924,6.8,10.583,3.549,15.307
				c-3.25,4.722-8.614,7.426-13.714,7.119c-6.487-0.818-11.596-8.34-9.499-15.388C756.027,753.417,756.315,752.657,756.701,751.89"
				/>
			<path style="fill:#9FB23A;" d="M767.624,755.168c1.561-3.251,5.81-3.888,8.343-2.106c1.851,1.3,3.022,4.702,1.577,6.8
				c-1.443,2.098-3.827,3.298-6.092,3.163c-2.881-0.364-5.151-3.706-4.219-6.837C767.325,755.847,767.452,755.509,767.624,755.168"
				/>
			<path style="fill:#432517;" d="M743.946,789.107l13.596,6.468l-7.524,0.528l0.924,0.792l8.183-0.396l7.862,4.334l-0.151,24.121
				c1.563-0.064,3.125-0.121,4.688-0.161l-0.343-20.799l20.982-7.191c-0.229-0.378-0.358-0.816-0.386-1.264l-8.223,2.397
				l2.927-7.639h-0.791l-3.331,7.652l-11.512,3.902l-0.501-16.97l3.462-3.201l8.329-0.115l0.386-0.773h-7.755l7.855-7.264
				l-0.264-1.188l-5.316,4.667l2.13-8.201l-0.644,0.258l-2.811,9.107l-5.238,4.599l-1.188-25.478h-1.188l-0.132,13.069l-6.336-5.808
				l-1.189,0.131l7.26,7.129l-0.5,16.723l-7.156-5.899l-0.66-5.677l-0.529-0.923v5.808l-4.884-3.168l-1.32-0.133l14.548,11.717
				l-0.096,7.855l-14.452-6.767l-1.981-4.752l-1.055-0.264l1.848,4.62l-7.657-2.376L743.946,789.107z"/>
		</g>
		<path style="fill:#5C6D81;" d="M1452,652.817l37-17.398v-25.333l114.041-53.4l4.688-102.933c0,0,46.811-53.667,61.541-51.667
			l-2.854-48l44.5-31v502H1452V652.817z"/>
		<polygon style="fill:#F1F5F5;" points="1920,829 1920,844 0,844 0,821 1920,821 		"/>
		<path style="fill:#2C3E52;" d="M1753.416,449.667V821H1677c0,0-50.209-64-50.209-178.667s63.313-192.667,63.313-192.667H1753.416z
			"/>
		<g>
			<path style="fill:none;" d="M1694.797,803.288v-13.333h58.62V722h-42.5v-13.333h42.5v-4.333h-42.5V691h42.5v-71.667h-51.5V606
				h51.5v-35.333h-58.62v-13.333h58.62v-10.667h-58.62v-13.333h58.62v-83.667h-63.313c0,0-11.306,13.93-24.362,38.667h45.925v13.333
				h-52.587c-1.32,2.791-2.641,5.679-3.955,8.667h56.542v13.333h-62.079c-6.592,16.869-12.623,36.232-16.825,57.667h51.06v13.333
				h-53.382c-0.437,2.856-0.838,5.746-1.203,8.667h49.428v13.333h-50.816c-0.217,2.642-0.397,5.312-0.55,8h51.365V638h-51.838
				c-0.02,1.44-0.037,2.882-0.037,4.333c0,6.017,0.146,11.885,0.408,17.621h47.134v13.333h-46.296
				c2.354,28.942,7.807,53.934,14.254,74.712h53.959v13.333h-49.499c0.991,2.757,1.993,5.427,3.001,8h46.498v13.333h-40.901
				C1666.65,807.805,1677,821,1677,821h76.416v-17.712H1694.797z"/>
			<path style="fill:#AAB7B7;" d="M1711.667,488.333h-45.925c-2.187,4.143-4.423,8.598-6.663,13.333h52.587V488.333z"/>
			<path style="fill:#AAB7B7;" d="M1711.667,510.333h-56.542c-1.87,4.252-3.724,8.696-5.537,13.333h62.079V510.333z"/>
			<rect x="1694.797" y="533.333" style="fill:#AAB7B7;" width="58.62" height="13.333"/>
			<rect x="1694.797" y="557.333" style="fill:#AAB7B7;" width="58.62" height="13.333"/>
			<path style="fill:#AAB7B7;" d="M1683.823,581.333h-51.06c-0.854,4.359-1.629,8.806-2.322,13.333h53.382V581.333z"/>
			<rect x="1701.916" y="606" style="fill:#AAB7B7;" width="51.5" height="13.333"/>
			<path style="fill:#AAB7B7;" d="M1696.25,769.333h-46.498c1.864,4.761,3.743,9.21,5.597,13.333h40.901V769.333z"/>
			<path style="fill:#AAB7B7;" d="M1696.25,748h-53.959c1.445,4.658,2.939,9.103,4.46,13.333h49.499V748z"/>
			<rect x="1710.916" y="708.667" style="fill:#AAB7B7;" width="42.5" height="13.333"/>
			<rect x="1710.916" y="691" style="fill:#AAB7B7;" width="42.5" height="13.333"/>
			<path style="fill:#AAB7B7;" d="M1678.667,603.333h-49.428c-0.547,4.375-1.016,8.818-1.388,13.333h50.816V603.333z"/>
			<path style="fill:#AAB7B7;" d="M1678.667,624.667h-51.365c-0.248,4.385-0.41,8.829-0.473,13.333h51.838V624.667z"/>
			<path style="fill:#AAB7B7;" d="M1674.333,659.954h-47.134c0.207,4.53,0.484,8.98,0.838,13.333h46.296V659.954z"/>
			<rect x="1694.797" y="789.954" style="fill:#AAB7B7;" width="58.62" height="13.333"/>
		</g>
		<rect x="1506.063" y="488.333" style="fill:#915CA6;" width="42.978" height="332.667"/>
		<ellipse style="fill:#854E9F;" cx="1527.552" cy="475.767" rx="100.364" ry="76.833"/>
		<ellipse style="fill:#F1F5F5;" cx="1527.552" cy="456.5" rx="100.364" ry="76.833"/>
		<path style="fill:#2C3E52;" d="M944,656.973l62,163.506h194V647.716c0,0-218.25-8.1-256,8.092"/>
		<rect x="968" y="665" style="fill:#BDB1D7;" width="16.053" height="16.053"/>
		<rect x="988" y="665" style="fill:#BDB1D7;" width="16.053" height="16.053"/>
		<rect x="1008" y="665" style="fill:#BDB1D7;" width="16.053" height="16.053"/>
		<rect x="1028" y="665" style="fill:#BDB1D7;" width="16.053" height="16.053"/>
		<rect x="1048" y="665" style="fill:#BDB1D7;" width="16.053" height="16.053"/>
		<rect x="1068" y="665" style="fill:#BDB1D7;" width="16.053" height="16.053"/>
		<rect x="1108" y="665" style="fill:#BDB1D7;" width="16.053" height="16.053"/>
		<rect x="1128" y="665" style="fill:#BDB1D7;" width="16.053" height="16.053"/>
		<rect x="1148" y="665" style="fill:#BDB1D7;" width="16.053" height="16.053"/>
		<rect x="988" y="690" style="fill:#BDB1D7;" width="16.053" height="16.053"/>
		<rect x="1008" y="690" style="fill:#BDB1D7;" width="16.053" height="16.053"/>
		<rect x="1028" y="690" style="fill:#BDB1D7;" width="16.053" height="16.053"/>
		<rect x="1048" y="690" style="fill:#BDB1D7;" width="16.053" height="16.053"/>
		<rect x="1128" y="690" style="fill:#BDB1D7;" width="16.053" height="16.053"/>
		<rect x="1148" y="690" style="fill:#BDB1D7;" width="16.053" height="16.053"/>
		<rect x="1008" y="715" style="fill:#BDB1D7;" width="16.053" height="16.053"/>
		<rect x="1028" y="715" style="fill:#BDB1D7;" width="16.053" height="16.053"/>
		<rect x="1048" y="715" style="fill:#BDB1D7;" width="16.053" height="16.053"/>
		<rect x="1088" y="715" style="fill:#BDB1D7;" width="16.053" height="16.053"/>
		<rect x="1128" y="715" style="fill:#BDB1D7;" width="16.053" height="16.053"/>
		<rect x="1148" y="715" style="fill:#BDB1D7;" width="16.053" height="16.053"/>
		<rect x="1028" y="740" style="fill:#BDB1D7;" width="16.053" height="16.053"/>
		<rect x="1068" y="740" style="fill:#BDB1D7;" width="16.053" height="16.053"/>
		<rect x="1088" y="740" style="fill:#BDB1D7;" width="16.053" height="16.053"/>
		<rect x="1108" y="740" style="fill:#BDB1D7;" width="16.053" height="16.053"/>
		<rect x="1148" y="740" style="fill:#BDB1D7;" width="16.053" height="16.053"/>
		<rect x="1008" y="765" style="fill:#BDB1D7;" width="16.053" height="16.053"/>
		<rect x="1028" y="765" style="fill:#BDB1D7;" width="16.053" height="16.053"/>
		<rect x="1148" y="765" style="fill:#BDB1D7;" width="16.053" height="16.053"/>
		<rect x="1008" y="790" style="fill:#BDB1D7;" width="16.053" height="16.053"/>
		<rect x="1048" y="790" style="fill:#BDB1D7;" width="16.053" height="16.053"/>
		<rect x="1068" y="790" style="fill:#BDB1D7;" width="16.053" height="16.053"/>
		<rect x="1088" y="790" style="fill:#BDB1D7;" width="16.053" height="16.053"/>
		<rect x="1108" y="790" style="fill:#BDB1D7;" width="16.053" height="16.053"/>
		<rect x="1128" y="790" style="fill:#BDB1D7;" width="16.053" height="16.053"/>
		<g>
			<path style="fill:#EC2227;" d="M1830,703.044c0,1.081-0.876,1.956-1.956,1.956h-1.087c-1.08,0-1.956-0.876-1.956-1.956v-0.087
				c0-1.081,0.876-1.956,1.956-1.956h1.087c1.08,0,1.956,0.876,1.956,1.956V703.044z"/>
			<path style="fill:#FBB03C;" d="M1824.186,698.967c7.056-4.014,25.134-16.029,42.392-11.312c0,0,3.637,0.865,9.456,5.682
				c0,0,31.82-1.775,37.639,7.958c0,0-3.098,5.249-26.878,6.453c0,0-38.567,0.386-48.575,0.119c0,0-3.086,0.295-7.3-2.339
				C1826.707,702.893,1822.117,700.145,1824.186,698.967z"/>
			<g>
				<path style="fill:#676767;" d="M1849.42,694.252l-2.786-5.919c-5.492,1.57-10.536,3.954-14.667,6.182
					C1843.899,695.494,1849.42,694.252,1849.42,694.252z"/>
				<path style="fill:#676767;" d="M1851.618,688.927c0,0,3.584,6.125,8.116,6.125c0,0,10.824,0.719,16.246-1.758
					c-4.716-3.892-7.988-5.185-9.039-5.53C1861.759,687.92,1851.766,688.3,1851.618,688.927z"/>
			</g>
			<path style="fill:#333333;" d="M1863,698.5c0,0.276-0.224,0.5-0.5,0.5h-3c-0.276,0-0.5-0.224-0.5-0.5l0,0
				c0-0.276,0.224-0.5,0.5-0.5h3C1862.776,698,1863,698.224,1863,698.5L1863,698.5z"/>
			<circle style="fill:#FAF183;" cx="1907.777" cy="701.471" r="1.615"/>
		</g>
		<g>
			<path style="fill:#EC2227;" d="M1413,595.044c0,1.081-0.876,1.956-1.956,1.956h-1.087c-1.08,0-1.956-0.876-1.956-1.956v-0.087
				c0-1.081,0.876-1.956,1.956-1.956h1.087c1.08,0,1.956,0.876,1.956,1.956V595.044z"/>
			<path style="fill:#FBB03C;" d="M1407.186,590.967c7.056-4.014,25.134-16.029,42.392-11.312c0,0,3.637,0.865,9.456,5.682
				c0,0,31.82-1.775,37.639,7.958c0,0-3.098,5.249-26.878,6.453c0,0-38.567,0.386-48.575,0.119c0,0-3.086,0.295-7.3-2.339
				C1409.707,594.893,1405.117,592.145,1407.186,590.967z"/>
			<g>
				<path style="fill:#676767;" d="M1432.42,586.252l-2.786-5.919c-5.492,1.57-10.536,3.954-14.667,6.182
					C1426.899,587.494,1432.42,586.252,1432.42,586.252z"/>
				<path style="fill:#676767;" d="M1434.618,580.927c0,0,3.584,6.125,8.116,6.125c0,0,10.824,0.719,16.246-1.758
					c-4.716-3.892-7.988-5.185-9.039-5.53C1444.759,579.92,1434.766,580.3,1434.618,580.927z"/>
			</g>
			<path style="fill:#333333;" d="M1446,590.5c0,0.276-0.224,0.5-0.5,0.5h-3c-0.276,0-0.5-0.224-0.5-0.5l0,0
				c0-0.276,0.224-0.5,0.5-0.5h3C1445.776,590,1446,590.224,1446,590.5L1446,590.5z"/>
			<circle style="fill:#FAF183;" cx="1490.777" cy="593.471" r="1.615"/>
		</g>
		<path style="fill:#EC2227;" d="M219-114.956c0,1.081-0.876,1.956-1.956,1.956h-1.087c-1.081,0-1.956-0.876-1.956-1.956v-0.087
			c0-1.081,0.876-1.956,1.956-1.956h1.087c1.081,0,1.956,0.876,1.956,1.956V-114.956z"/>
		<g>
			<path style="fill:#E65135;" d="M1779.186,623.967c7.056-4.014,25.134-16.029,42.392-11.312c0,0,3.637,0.865,9.456,5.682
				c0,0,31.82-1.775,37.639,7.958c0,0-3.098,5.249-26.878,6.453c0,0-38.567,0.386-48.575,0.119c0,0-3.086,0.295-7.3-2.339
				C1781.707,627.893,1777.117,625.145,1779.186,623.967z"/>
			<g>
				<path style="fill:#676767;" d="M1804.42,619.252l-2.786-5.919c-5.492,1.57-10.536,3.954-14.667,6.182
					C1798.899,620.494,1804.42,619.252,1804.42,619.252z"/>
				<path style="fill:#676767;" d="M1806.618,613.927c0,0,3.584,6.125,8.116,6.125c0,0,10.824,0.719,16.246-1.758
					c-4.716-3.892-7.988-5.185-9.039-5.53C1816.759,612.92,1806.766,613.3,1806.618,613.927z"/>
			</g>
		</g>
		<path style="fill:#333333;" d="M252-119.5c0,0.276-0.224,0.5-0.5,0.5h-3c-0.276,0-0.5-0.224-0.5-0.5l0,0
			c0-0.276,0.224-0.5,0.5-0.5h3C251.776-120,252-119.776,252-119.5L252-119.5z"/>
		<circle style="fill:#FAF183;" cx="296.777" cy="-116.529" r="1.615"/>
		<g>
			<path style="fill:#EC2227;" d="M1564,473.044c0,1.081-0.876,1.956-1.956,1.956h-1.087c-1.08,0-1.956-0.876-1.956-1.956v-0.087
				c0-1.081,0.876-1.956,1.956-1.956h1.087c1.08,0,1.956,0.876,1.956,1.956V473.044z"/>
			<path style="fill:#30AF55;" d="M1558.186,468.967c7.056-4.014,25.134-16.029,42.392-11.312c0,0,3.637,0.865,9.456,5.682
				c0,0,31.82-1.775,37.639,7.958c0,0-3.098,5.249-26.878,6.453c0,0-38.567,0.386-48.575,0.119c0,0-3.086,0.295-7.3-2.339
				C1560.707,472.893,1556.117,470.145,1558.186,468.967z"/>
			<g>
				<path style="fill:#676767;" d="M1583.42,464.252l-2.786-5.919c-5.492,1.57-10.536,3.954-14.667,6.182
					C1577.899,465.494,1583.42,464.252,1583.42,464.252z"/>
				<path style="fill:#676767;" d="M1585.618,458.927c0,0,3.584,6.125,8.116,6.125c0,0,10.824,0.719,16.246-1.758
					c-4.716-3.892-7.988-5.185-9.039-5.53C1595.759,457.92,1585.766,458.3,1585.618,458.927z"/>
			</g>
			<path style="fill:#333333;" d="M1597,468.5c0,0.276-0.224,0.5-0.5,0.5h-3c-0.276,0-0.5-0.224-0.5-0.5l0,0
				c0-0.276,0.224-0.5,0.5-0.5h3C1596.776,468,1597,468.224,1597,468.5L1597,468.5z"/>
			<circle style="fill:#FAF183;" cx="1641.777" cy="471.471" r="1.615"/>
		</g>
		<g>
			<path style="fill:#EC2227;" d="M261,512.044c0,1.081-0.876,1.956-1.956,1.956h-1.087c-1.081,0-1.956-0.876-1.956-1.956v-0.087
				c0-1.081,0.876-1.956,1.956-1.956h1.087c1.081,0,1.956,0.876,1.956,1.956V512.044z"/>
			<path style="fill:#2B3E51;" d="M255.186,507.967c7.056-4.014,25.134-16.029,42.392-11.312c0,0,3.638,0.865,9.456,5.682
				c0,0,31.82-1.775,37.639,7.958c0,0-3.098,5.249-26.878,6.453c0,0-38.567,0.386-48.575,0.119c0,0-3.086,0.295-7.3-2.339
				C257.707,511.893,253.117,509.145,255.186,507.967z"/>
			<g>
				<path style="fill:#676767;" d="M280.42,503.252l-2.786-5.919c-5.492,1.57-10.536,3.954-14.667,6.182
					C274.899,504.494,280.42,503.252,280.42,503.252z"/>
				<path style="fill:#676767;" d="M282.618,497.927c0,0,3.584,6.125,8.116,6.125c0,0,10.824,0.719,16.246-1.758
					c-4.716-3.892-7.988-5.185-9.039-5.53C292.759,496.92,282.766,497.3,282.618,497.927z"/>
			</g>
			<path style="fill:#333333;" d="M294,507.5c0,0.276-0.224,0.5-0.5,0.5h-3c-0.276,0-0.5-0.224-0.5-0.5l0,0
				c0-0.276,0.224-0.5,0.5-0.5h3C293.776,507,294,507.224,294,507.5L294,507.5z"/>
			<circle style="fill:#FAF183;" cx="338.777" cy="510.471" r="1.615"/>
		</g>
		<g>
			<path style="fill:#EC2227;" d="M598,714.044c0,1.081-0.876,1.956-1.956,1.956h-1.087c-1.081,0-1.956-0.876-1.956-1.956v-0.087
				c0-1.081,0.876-1.956,1.956-1.956h1.087c1.081,0,1.956,0.876,1.956,1.956V714.044z"/>
			<path style="fill:#30AF55;" d="M592.186,709.967c7.056-4.014,25.134-16.029,42.392-11.312c0,0,3.637,0.865,9.456,5.682
				c0,0,31.82-1.775,37.639,7.958c0,0-3.098,5.249-26.878,6.453c0,0-38.567,0.386-48.575,0.119c0,0-3.086,0.295-7.3-2.339
				C594.707,713.893,590.117,711.145,592.186,709.967z"/>
			<g>
				<path style="fill:#676767;" d="M617.42,705.252l-2.786-5.919c-5.492,1.57-10.536,3.954-14.667,6.182
					C611.899,706.494,617.42,705.252,617.42,705.252z"/>
				<path style="fill:#676767;" d="M619.618,699.927c0,0,3.584,6.125,8.116,6.125c0,0,10.824,0.719,16.246-1.758
					c-4.716-3.892-7.988-5.185-9.039-5.53C629.759,698.92,619.766,699.3,619.618,699.927z"/>
			</g>
			<path style="fill:#333333;" d="M631,709.5c0,0.276-0.224,0.5-0.5,0.5h-3c-0.276,0-0.5-0.224-0.5-0.5l0,0
				c0-0.276,0.224-0.5,0.5-0.5h3C630.776,709,631,709.224,631,709.5L631,709.5z"/>
			<circle style="fill:#FAF183;" cx="675.777" cy="712.471" r="1.615"/>
		</g>
		<g>
			<path style="fill:#EC2227;" d="M1310,769.956c0-1.081-0.876-1.956-1.956-1.956h-1.087c-1.08,0-1.956,0.876-1.956,1.956v0.087
				c0,1.081,0.876,1.956,1.956,1.956h1.087c1.08,0,1.956-0.876,1.956-1.956V769.956z"/>
			<path style="fill:#FBB03C;" d="M1311.161,765.967c-7.056-4.014-25.134-16.029-42.392-11.312c0,0-3.638,0.865-9.457,5.682
				c0,0-31.82-1.775-37.639,7.958c0,0,3.098,5.249,26.878,6.453c0,0,38.567,0.386,48.575,0.119c0,0,3.086,0.295,7.3-2.339
				C1308.64,769.893,1313.23,767.145,1311.161,765.967z"/>
			<g>
				<path style="fill:#676767;" d="M1285.926,761.252l2.786-5.919c5.492,1.57,10.536,3.954,14.667,6.182
					C1291.448,762.494,1285.926,761.252,1285.926,761.252z"/>
				<path style="fill:#676767;" d="M1283.728,755.927c0,0-3.584,6.125-8.116,6.125c0,0-10.824,0.719-16.246-1.758
					c4.716-3.892,7.988-5.185,9.039-5.53C1273.588,754.92,1283.581,755.3,1283.728,755.927z"/>
			</g>
			<path style="fill:#333333;" d="M1276,765.5c0-0.276-0.224-0.5-0.5-0.5h-3c-0.276,0-0.5,0.224-0.5,0.5l0,0
				c0,0.276,0.224,0.5,0.5,0.5h3C1275.776,766,1276,765.776,1276,765.5L1276,765.5z"/>
			<circle style="fill:#FAF183;" cx="1227.57" cy="768.471" r="1.615"/>
		</g>
		<path style="fill:#EC2227;" d="M648-186.044c0-1.081-0.876-1.956-1.956-1.956h-1.087c-1.081,0-1.956,0.876-1.956,1.956v0.087
			c0,1.081,0.876,1.956,1.956,1.956h1.087c1.081,0,1.956-0.876,1.956-1.956V-186.044z"/>
		<g>
			<path style="fill:#E65135;" d="M554.161,741.967c-7.056-4.014-25.134-16.029-42.392-11.312c0,0-3.637,0.865-9.456,5.682
				c0,0-31.82-1.775-37.639,7.958c0,0,3.098,5.249,26.878,6.453c0,0,38.567,0.386,48.575,0.119c0,0,3.086,0.295,7.3-2.339
				C551.64,745.893,556.23,743.145,554.161,741.967z"/>
			<g>
				<path style="fill:#676767;" d="M528.926,737.252l2.786-5.919c5.492,1.57,10.536,3.954,14.667,6.182
					C534.448,738.494,528.926,737.252,528.926,737.252z"/>
				<path style="fill:#676767;" d="M526.728,731.927c0,0-3.584,6.125-8.116,6.125c0,0-10.824,0.719-16.246-1.758
					c4.716-3.892,7.988-5.185,9.039-5.53C516.587,730.92,526.581,731.3,526.728,731.927z"/>
			</g>
		</g>
		<g>
			<path style="fill:#E65135;" d="M1004.161,552.967c-7.056-4.014-25.134-16.029-42.392-11.312c0,0-3.638,0.865-9.456,5.682
				c0,0-31.82-1.775-37.639,7.958c0,0,3.098,5.249,26.878,6.453c0,0,38.567,0.386,48.575,0.119c0,0,3.086,0.295,7.3-2.339
				C1001.64,556.893,1006.23,554.145,1004.161,552.967z"/>
			<g>
				<path style="fill:#676767;" d="M978.926,548.252l2.786-5.919c5.492,1.57,10.536,3.954,14.667,6.182
					C984.448,549.494,978.926,548.252,978.926,548.252z"/>
				<path style="fill:#676767;" d="M976.728,542.927c0,0-3.584,6.125-8.116,6.125c0,0-10.824,0.719-16.246-1.758
					c4.716-3.892,7.988-5.185,9.039-5.53C966.587,541.92,976.581,542.3,976.728,542.927z"/>
			</g>
		</g>
		<path style="fill:#333333;" d="M614-190.5c0-0.276-0.224-0.5-0.5-0.5h-3c-0.276,0-0.5,0.224-0.5,0.5l0,0
			c0,0.276,0.224,0.5,0.5,0.5h3C613.776-190,614-190.224,614-190.5L614-190.5z"/>
		<circle style="fill:#FAF183;" cx="565.57" cy="-187.529" r="1.615"/>
		<g>
			<path style="fill:#EC2227;" d="M1139,386.956c0-1.081-0.876-1.956-1.956-1.956h-1.087c-1.08,0-1.956,0.876-1.956,1.956v0.087
				c0,1.081,0.876,1.956,1.956,1.956h1.087c1.08,0,1.956-0.876,1.956-1.956V386.956z"/>
			<path style="fill:#30AF55;" d="M1140.161,382.967c-7.056-4.014-25.134-16.029-42.392-11.312c0,0-3.638,0.865-9.457,5.682
				c0,0-31.82-1.775-37.639,7.958c0,0,3.098,5.249,26.878,6.453c0,0,38.567,0.386,48.575,0.119c0,0,3.086,0.295,7.3-2.339
				C1137.64,386.893,1142.23,384.145,1140.161,382.967z"/>
			<g>
				<path style="fill:#676767;" d="M1114.926,378.252l2.786-5.919c5.492,1.57,10.536,3.954,14.667,6.182
					C1120.448,379.494,1114.926,378.252,1114.926,378.252z"/>
				<path style="fill:#676767;" d="M1112.728,372.927c0,0-3.584,6.125-8.116,6.125c0,0-10.824,0.719-16.246-1.758
					c4.716-3.892,7.988-5.185,9.039-5.53C1102.588,371.92,1112.581,372.3,1112.728,372.927z"/>
			</g>
			<path style="fill:#333333;" d="M1105,382.5c0-0.276-0.224-0.5-0.5-0.5h-3c-0.276,0-0.5,0.224-0.5,0.5l0,0
				c0,0.276,0.224,0.5,0.5,0.5h3C1104.776,383,1105,382.776,1105,382.5L1105,382.5z"/>
			<circle style="fill:#FAF183;" cx="1056.57" cy="385.471" r="1.615"/>
		</g>
	</g>
</g>
</svg>
