<svg xmlns="http://www.w3.org/2000/svg" width="1000" height="704" viewBox="0 0 1000 704">
  <path d="M841.239-226H989.515l0.485,1.46c-2.707,9.668-14.776,15.809-20.142,23.6-8.349,12.122-11.84,27.034-20.628,38.2q-1.7,5.353-3.4,10.707c-5.969,10-17.943,14.95-25,23.845-7.369,9.291-10.214,33.952-16.745,45.744-4.563,8.245-13.42,19.594-20.627,25.549l-13.105,6.569L856.286-25.507Q840.514-6.283,824.738,12.941c-3.225,5.63-3.961,14.2-7.524,19.47L799.257,51.87c-6.912,5.16-18.533,8.873-22.084,17.033q1.215,7.786,2.427,15.573l-4.368,3.649-0.246.493-4.367,10.95-6.553,7.543-0.728.73c-1.094,4.3,2.966,14.217,1.214,21.412-2.167,8.891-9.456,13.663-11.407,21.413l0.971,10.706-1.941,3.893c-2.422,17.375,8.975,51.523-.247,67.16-4.019.616-9.5,1.876-12.133-.73-4.14-4.1-3.927-33.395-13.347-29.686-8.158,3.216-4.081,16.111-7.038,25.063l-4.854,7.786c-3.467,8.7-7.7,32.15-20.385,28.22-2.127-2.548-3.522-7.792-4.125-11.68-0.861-5.518,2.692-7.115,3.4-11.193,0.846-4.891-1.353-7.81-1.942-11.191-1.671-9.645-2.092-22.4-15.531-17.52-3.047,5.176-10.938,17.695-12.619,21.9-2.185,5.463-5.168,49.415-17.72,35.281l-1.7-9c-2.42-9.906-4.706-26.11-2.427-37.955q1.454-6.081,2.911-12.166c-0.775-4.033-3.8-9.366-7.766-10.22-13.381-2.884-45.883,46.5-59.7,49.152l-5.34-3.406c-0.615-5.414,4.641-6.549,5.824-10.707v-8.76l7.535-11.681c7.246-13.983,16.279-24.871,24.51-37.471V163.8c1.723-5.937,9.968-32.35,14.56-33.577a12.144,12.144,0,0,1,1.214-8.76L644.672,103.7l7.766-15.573,0.727-.972,11.649-1.947C669.2,74.967,679,78.5,685.684,71.822c-0.778-6.116-4.283-12.434,2.427-15.086-2.6-8.921,29.364-29.91,31.062-45.744,1.846-17.242,11.092-26.125,20.143-37.955l13.832-26.764c12.986-31.831,21.32-64.7,36.645-94.409,11.584-22.461,27.583-43.541,41.983-64.237l10.676-10.462Q841.848-224.419,841.239-226ZM-120,509.309c24-.1,56.315-2.563,77.651.487,9.994,1.428,18.182-2.669,26.694.73,4.835,1.931,7.451,8.133,11.163,11.436l14.56-4.866,29.121-2.434c6.276-.921,8.5,3.047,12.134,2.921,7.1-.246,11.26-7.919,21.356-7.543l24.754,4.136c4.781-1,6.584-6.714,13.59-5.353l11.648,3.407c8.344-1.693,22.833-13.117,31.548-15.086l13.105-.493c11.171-3.2,23.8-9.695,35.43-13.14,19.56-5.792,37.625-7.886,55.815-15.085,5.816-2.3,5.443-14.571,10.678-18.25l7.038-1.945c8.973-6.711,13.852-16.868,26.211-20.683l13.832-3.893,9.222-.246c10.473-5.166,19.986-19.728,32.034-17.763-0.107-12.586,12.046-12.374,16.259-20.195Q375.42,373.9,377,362.336c3.367-10,24.2-65.484,37.372-60.587,12.089,4.494-13.382,58.287-5.582,67.886,11.211,13.8,15.523-11.8,18.929-13.626,4.638-2.482,8.54,2.571,12.134,3.406,7.268-4.4,9.038-12.526,15.289-17.518,6.884-5.5,15.035-6.7,23.3-11.193,10.528-5.725,33.588-30.38,49.506-20.439,1.381,8.222-10.183,14.779-13.832,19.952l0.246,1.461c2.444,1.313,5.634.272,8.251,0.729,8.319,11.384,2.231,25.526-.728,35.769,13.065,5.545,6.608,19.633,5.1,29.685q0.606,6.932,1.213,13.869l-7.28,7.3q0.849,8.639,1.7,17.275l-7.28,1.218q-1.7-10.218-3.4-20.439l-2.911-.493-0.486.493c0.8,5.7-.079,24.009-2.912,26.521h-3.4l-1.7-1.216-0.727-4.137q1.09-11.312,2.184-22.628c-1.837-4.92-8.378-6.093-7.038-13.383v-0.729l1.7-3.164,0.247-.246q-0.125-.609-0.247-1.216a8.811,8.811,0,0,0-6.066-3.651l-1.214,1.218q0.608,4.5,1.214,9c-1.269,5.21-8.279,9.365-10.192,15.086-3.784,11.305-4.163,20.56-6.8,31.631l-8.983,4.38-5.34,5.84c-9.686,3.327-21.681,2.464-29.363,7.056L415.581,485.94c-4.979-.117-7.506-1.624-10.678-2.921l-0.485.247c-2.61,9.9-19.842,9.858-27.422,14.6l-0.493.487-4.124,7.3-7.281,4.866-5.1,12.41-47.311,60.6c-12.022,10.408-46.346,19.57-62.853,26.766l-44.167,18.977q-21.352,10.705-42.711,21.412l-37.372,8.03-22.327,6.813-60.668,2.92L-4.486,666.5-23.9,675.738c-26.3,6.752-47.677,11.279-76.2,17.033-6.986,1.408-11.853,4.769-19.9,4.135v-187.6h0ZM841.239-226H989.515l0.485,1.46c-2.707,9.668-14.776,15.809-20.142,23.6-8.349,12.122-11.84,27.034-20.628,38.2q-1.7,5.353-3.4,10.707c-5.969,10-17.943,14.95-25,23.845-7.369,9.291-10.214,33.952-16.745,45.744-4.563,8.245-13.42,19.594-20.627,25.549l-13.105,6.569L856.286-25.507Q840.514-6.283,824.738,12.941c-3.225,5.63-3.961,14.2-7.524,19.47L799.257,51.87c-6.912,5.16-18.533,8.873-22.084,17.033q1.215,7.786,2.427,15.573l-4.368,3.649-0.246.493-4.367,10.95-6.553,7.543-0.728.73c-1.094,4.3,2.966,14.217,1.214,21.412-2.167,8.891-9.456,13.663-11.407,21.413l0.971,10.706-1.941,3.893c-2.422,17.375,8.975,51.523-.247,67.16-4.019.616-9.5,1.876-12.133-.73-4.14-4.1-3.927-33.395-13.347-29.686-8.158,3.216-4.081,16.111-7.038,25.063l-4.854,7.786c-3.467,8.7-7.7,32.15-20.385,28.22-2.127-2.548-3.522-7.792-4.125-11.68-0.861-5.518,2.692-7.115,3.4-11.193,0.846-4.891-1.353-7.81-1.942-11.191-1.671-9.645-2.092-22.4-15.531-17.52-3.047,5.176-10.938,17.695-12.619,21.9-2.185,5.463-5.168,49.415-17.72,35.281l-1.7-9c-2.42-9.906-4.706-26.11-2.427-37.955q1.454-6.081,2.911-12.166c-0.775-4.033-3.8-9.366-7.766-10.22-13.381-2.884-45.883,46.5-59.7,49.152l-5.34-3.406c-0.615-5.414,4.641-6.549,5.824-10.707v-8.76l7.535-11.681c7.246-13.983,16.279-24.871,24.51-37.471V163.8c1.723-5.937,9.968-32.35,14.56-33.577a12.144,12.144,0,0,1,1.214-8.76L644.672,103.7l7.766-15.573,0.727-.972,11.649-1.947C669.2,74.967,679,78.5,685.684,71.822c-0.778-6.116-4.283-12.434,2.427-15.086-2.6-8.921,29.364-29.91,31.062-45.744,1.846-17.242,11.092-26.125,20.143-37.955l13.832-26.764c12.986-31.831,21.32-64.7,36.645-94.409,11.584-22.461,27.583-43.541,41.983-64.237l10.676-10.462Q841.848-224.419,841.239-226ZM-120,509.309c24-.1,56.315-2.563,77.651.487,9.994,1.428,18.182-2.669,26.694.73,4.835,1.931,7.451,8.133,11.163,11.436l14.56-4.866,29.121-2.434c6.276-.921,8.5,3.047,12.134,2.921,7.1-.246,11.26-7.919,21.356-7.543l24.754,4.136c4.781-1,6.584-6.714,13.59-5.353l11.648,3.407c8.344-1.693,22.833-13.117,31.548-15.086l13.105-.493c11.171-3.2,23.8-9.695,35.43-13.14,19.56-5.792,37.625-7.886,55.815-15.085,5.816-2.3,5.443-14.571,10.678-18.25l7.038-1.945c8.973-6.711,13.852-16.868,26.211-20.683l13.832-3.893,9.222-.246c10.473-5.166,19.986-19.728,32.034-17.763-0.107-12.586,12.046-12.374,16.259-20.195Q375.42,373.9,377,362.336c3.367-10,24.2-65.484,37.372-60.587,12.089,4.494-13.382,58.287-5.582,67.886,11.211,13.8,15.523-11.8,18.929-13.626,4.638-2.482,8.54,2.571,12.134,3.406,7.268-4.4,9.038-12.526,15.289-17.518,6.884-5.5,15.035-6.7,23.3-11.193,10.528-5.725,33.588-30.38,49.506-20.439,1.381,8.222-10.183,14.779-13.832,19.952l0.246,1.461c2.444,1.313,5.634.272,8.251,0.729,8.319,11.384,2.231,25.526-.728,35.769,13.065,5.545,6.608,19.633,5.1,29.685q0.606,6.932,1.213,13.869l-7.28,7.3q0.849,8.639,1.7,17.275l-7.28,1.218q-1.7-10.218-3.4-20.439l-2.911-.493-0.486.493c0.8,5.7-.079,24.009-2.912,26.521h-3.4l-1.7-1.216-0.727-4.137q1.09-11.312,2.184-22.628c-1.837-4.92-8.378-6.093-7.038-13.383v-0.729l1.7-3.164,0.247-.246q-0.125-.609-0.247-1.216a8.811,8.811,0,0,0-6.066-3.651l-1.214,1.218q0.608,4.5,1.214,9c-1.269,5.21-8.279,9.365-10.192,15.086-3.784,11.305-4.163,20.56-6.8,31.631l-8.983,4.38-5.34,5.84c-9.686,3.327-21.681,2.464-29.363,7.056L415.581,485.94c-4.979-.117-7.506-1.624-10.678-2.921l-0.485.247c-2.61,9.9-19.842,9.858-27.422,14.6l-0.493.487-4.124,7.3-7.281,4.866-5.1,12.41-47.311,60.6c-12.022,10.408-46.346,19.57-62.853,26.766l-44.167,18.977q-21.352,10.705-42.711,21.412l-37.372,8.03-22.327,6.813-60.668,2.92L-4.486,666.5-23.9,675.738c-26.3,6.752-47.677,11.279-76.2,17.033-6.986,1.408-11.853,4.769-19.9,4.135v-187.6h0ZM841.239-226H989.515l0.485,1.46c-2.707,9.668-14.776,15.809-20.142,23.6-8.349,12.122-11.84,27.034-20.628,38.2q-1.7,5.353-3.4,10.707c-5.969,10-17.943,14.95-25,23.845-7.369,9.291-10.214,33.952-16.745,45.744-4.563,8.245-13.42,19.594-20.627,25.549l-13.105,6.569L856.286-25.507Q840.514-6.283,824.738,12.941c-3.225,5.63-3.961,14.2-7.524,19.47L799.257,51.87c-6.912,5.16-18.533,8.873-22.084,17.033q1.215,7.786,2.427,15.573l-4.368,3.649-0.246.493-4.367,10.95-6.553,7.543-0.728.73c-1.094,4.3,2.966,14.217,1.214,21.412-2.167,8.891-9.456,13.663-11.407,21.413l0.971,10.706-1.941,3.893c-2.422,17.375,8.975,51.523-.247,67.16-4.019.616-9.5,1.876-12.133-.73-4.14-4.1-3.927-33.395-13.347-29.686-8.158,3.216-4.081,16.111-7.038,25.063l-4.854,7.786c-3.467,8.7-7.7,32.15-20.385,28.22-2.127-2.548-3.522-7.792-4.125-11.68-0.861-5.518,2.692-7.115,3.4-11.193,0.846-4.891-1.353-7.81-1.942-11.191-1.671-9.645-2.092-22.4-15.531-17.52-3.047,5.176-10.938,17.695-12.619,21.9-2.185,5.463-5.168,49.415-17.72,35.281l-1.7-9c-2.42-9.906-4.706-26.11-2.427-37.955q1.454-6.081,2.911-12.166c-0.775-4.033-3.8-9.366-7.766-10.22-13.381-2.884-45.883,46.5-59.7,49.152l-5.34-3.406c-0.615-5.414,4.641-6.549,5.824-10.707v-8.76l7.535-11.681c7.246-13.983,16.279-24.871,24.51-37.471V163.8c1.723-5.937,9.968-32.35,14.56-33.577a12.144,12.144,0,0,1,1.214-8.76L644.672,103.7l7.766-15.573,0.727-.972,11.649-1.947C669.2,74.967,679,78.5,685.684,71.822c-0.778-6.116-4.283-12.434,2.427-15.086-2.6-8.921,29.364-29.91,31.062-45.744,1.846-17.242,11.092-26.125,20.143-37.955l13.832-26.764c12.986-31.831,21.32-64.7,36.645-94.409,11.584-22.461,27.583-43.541,41.983-64.237l10.676-10.462Q841.848-224.419,841.239-226ZM-120,509.309c24-.1,56.315-2.563,77.651.487,9.994,1.428,18.182-2.669,26.694.73,4.835,1.931,7.451,8.133,11.163,11.436l14.56-4.866,29.121-2.434c6.276-.921,8.5,3.047,12.134,2.921,7.1-.246,11.26-7.919,21.356-7.543l24.754,4.136c4.781-1,6.584-6.714,13.59-5.353l11.648,3.407c8.344-1.693,22.833-13.117,31.548-15.086l13.105-.493c11.171-3.2,23.8-9.695,35.43-13.14,19.56-5.792,37.625-7.886,55.815-15.085,5.816-2.3,5.443-14.571,10.678-18.25l7.038-1.945c8.973-6.711,13.852-16.868,26.211-20.683l13.832-3.893,9.222-.246c10.473-5.166,19.986-19.728,32.034-17.763-0.107-12.586,12.046-12.374,16.259-20.195Q375.42,373.9,377,362.336c3.367-10,24.2-65.484,37.372-60.587,12.089,4.494-13.382,58.287-5.582,67.886,11.211,13.8,15.523-11.8,18.929-13.626,4.638-2.482,8.54,2.571,12.134,3.406,7.268-4.4,9.038-12.526,15.289-17.518,6.884-5.5,15.035-6.7,23.3-11.193,10.528-5.725,33.588-30.38,49.506-20.439,1.381,8.222-10.183,14.779-13.832,19.952l0.246,1.461c2.444,1.313,5.634.272,8.251,0.729,8.319,11.384,2.231,25.526-.728,35.769,13.065,5.545,6.608,19.633,5.1,29.685q0.606,6.932,1.213,13.869l-7.28,7.3q0.849,8.639,1.7,17.275l-7.28,1.218q-1.7-10.218-3.4-20.439l-2.911-.493-0.486.493c0.8,5.7-.079,24.009-2.912,26.521h-3.4l-1.7-1.216-0.727-4.137q1.09-11.312,2.184-22.628c-1.837-4.92-8.378-6.093-7.038-13.383v-0.729l1.7-3.164,0.247-.246q-0.125-.609-0.247-1.216a8.811,8.811,0,0,0-6.066-3.651l-1.214,1.218q0.608,4.5,1.214,9c-1.269,5.21-8.279,9.365-10.192,15.086-3.784,11.305-4.163,20.56-6.8,31.631l-8.983,4.38-5.34,5.84c-9.686,3.327-21.681,2.464-29.363,7.056L415.581,485.94c-4.979-.117-7.506-1.624-10.678-2.921l-0.485.247c-2.61,9.9-19.842,9.858-27.422,14.6l-0.493.487-4.124,7.3-7.281,4.866-5.1,12.41-47.311,60.6c-12.022,10.408-46.346,19.57-62.853,26.766l-44.167,18.977q-21.352,10.705-42.711,21.412l-37.372,8.03-22.327,6.813-60.668,2.92L-4.486,666.5-23.9,675.738c-26.3,6.752-47.677,11.279-76.2,17.033-6.986,1.408-11.853,4.769-19.9,4.135v-187.6h0Z"/>
</svg>
