<svg xmlns="http://www.w3.org/2000/svg" width="1000" height="1500" viewBox="0 0 1000 1500">
    <path d="M216.933,533.779s-13.8-5.252-49.07-18.153-37.478-17.382-37.478-17.382L114.929,479.7A148.149,148.149,0,0,1,98.7,468.889a87.305,87.305,0,0,1-11.591-11.2l-2.318-.772v-3.09a162.059,162.059,0,0,1-15.069-35.536c-3.553-12.572-4.25-32.831-4.25-32.831s-3.052-21.344-.386-39.784c2.095-14.49,10.046-27.038,10.046-27.038s-2.344-18.125,1.159-32.832c1.513-6.352,3.252-13.18,5.8-17.381a17.557,17.557,0,0,1,6.569-6.567s-0.351-6.692,4.25-11.2c5.213-5.109,15.455-8.111,15.455-8.111s19.677-4.88,35.547-3.863c14.172,0.908,24.728,9.27,24.728,9.27l9.273,2.7,1.932,2.318s-0.712,2.313.386,2.7,8.5,7.339,8.5,7.339l1.159-1.545s-1.668-50.28-.773-87.293c0.342-14.157,3.864-40.557,3.864-40.557s-1.424-31.416,8.114-59.1c0.9-8.376,5.15-17.765,8.886-23.948a79.488,79.488,0,0,1,18.933-21.244s24.368-13.149,49.456-13.519c27.182-.4,55.253,11.974,55.253,11.974s10.21,6.673,15.068,2.317c2.293-2.056,18.482-13.471,36.706-18.926C405.776,5.076,428.282,5,428.282,5s23.456-7.844,43.274-3.863c19.592,3.936,35.161,20.472,35.161,20.472s10.936-3.684,22.023-6.18c10.33-2.326,20.865-3.476,20.865-3.476S576.981-.226,603.7,6.156c25.815,6.167,51,30.9,51,30.9s3.98,3,8.5,2.7a90.979,90.979,0,0,1,17.387-10.042,69.586,69.586,0,0,1,17-4.249s14.389-7.206,34.774-3.09c18.765,3.789,43.66,18.927,43.66,18.927l11.2,11.2s10.781,18.681,16.228,34.377a61.136,61.136,0,0,1,3.478,22.4,68.53,68.53,0,0,1,2.318,11.588,40.378,40.378,0,0,1-.386,9.656,55.337,55.337,0,0,1,2.7,13.133,133.49,133.49,0,0,1-.386,19.312l58.729,1.159s39.8,0.746,39.8,34.763,6.182,905.763,6.182,905.763,4.492,46.35-42.888,46.35l-1.545,1.16s-1.25,42.07-5.023,70.3a75.822,75.822,0,0,1-7.728,25.11l-9.273,14.29-16.228,9.27a64.356,64.356,0,0,1-10.432,12.75c-5.8,5.31-13.42,9.12-19.705,13.9-9.906,7.53-16.614,8.88-16.614,8.88s-15.193,6.93-28.979,5.8c-14.406-1.19-26.66-11.59-26.66-11.59a21.877,21.877,0,0,0-17.773-4.25c-6.9,1.41-20.213,22.55-38.638,35.92-9.578,6.95-31.66,10.83-31.3,10.82,0.508-.01-16.313,1.66-30.524-1.93-15.529-3.92-28.591-13.14-28.591-13.14s-5.381-2.11-9.66-1.93a18.349,18.349,0,0,0-8.5,2.71s-14.028,16.86-30.138,23.56c-19.334,8.04-41.342,6.18-41.342,6.18s-19.858-5.09-36.706-16.61c-9.714-6.64-18.8-18.98-21.33-22.56-0.451-.64-0.694-1-0.694-1l-14.682-3.09-12.751,4.63s-26.18,19.08-40.183,22.41c0,0-16.929,2.92-37.865-5.8-15.141-6.3-36.435-25.17-35.547-24.72,1.069,0.55-8.147-5.61-16.614-29.35-8.3-23.27-15.842-64.12-15.842-64.12L249,1196.98l-21.638-33.99-30.137-29.36-17.387-20.47s-21.281-19.11-31.683-29.74l-24.342-22.79s-15.018-6.3-25.887-16.61c-4.2-3.98-11.591-18.92-11.591-18.92a151.7,151.7,0,0,1-9.659-37.472c-2.75-21.138-1.546-48.668-1.546-48.668s7.061-34.893,27.82-51.371,70.707-10.816,70.707-10.816l44.433-6.952Z"/>
</svg>
