<svg xmlns="http://www.w3.org/2000/svg" width="1000" height="587" viewBox="0 0 1000 587">
    <path d="M-8.305-6S105.743,68.182,175.573,115.54c29.977,20.33,51.633,25,83.89,24.648s70.366,3.08,136.426,16.432S641.342,168.8,641.342,168.8s1.891-9.142,7.062-5.1c0,0,2.777-3.14,10.168.85l20.055-.283,14.122-1.417,9.886-6.8a34.879,34.879,0,0,1,18.077-20.682l12.993-15.865s0.309-3.55,5.65-9.066,5.931-4.817,5.931-4.817,0.035-7.757,6.214-11.049c0,0,1.416-8.915,9.6-9.349a63.6,63.6,0,0,1,7.343-9.349,8.257,8.257,0,0,1,5.085-2.55s2.516-7.131,8.473-7.649c0,0,.481-6.218,7.909-9.349l1.412-7.083,5.367-1.983s10.57-14.513,11.3-21.532,5.835-10.756,10.734-13.882,12.806-15.581,18.924-8.783,3.672,3.966,3.672,3.966S846.625-3,858.833.516s86.714,26.915,86.714,26.915,14.6,5.75,7.909,26.914c-4.254,13.457-4.237,14.449-4.237,14.449l25.421-.566s21.232,0.882,23.161,19.832-13.943,23.708-16.664,24.082-23.727-.85-23.727-0.85l-21.466,1.416-6.5,18.982s10.7,0.624,14.123,9.349c0,0,9.71,7.184,8.191,27.481C947.932,186.3,940.463,196,940.463,196l-2.26.566s1.105,13.152-2.259,18.982a61.239,61.239,0,0,1-5.932,8.783l-2.26,5.383-3.672-.567-3.954-1.133s-3.373-1.224-2.824,1.416,3.08,2.563,5.366,5.1,4.852,12.127-2.259,22.665l-3.955,2.833-5.649,6.516-1.695.283-4.8,1.134s-4.431,1.653-7.627,1.133-6.284,3.39-15.252-2.55a24.917,24.917,0,0,1-8.474,1.417,25.994,25.994,0,0,1-8.191-1.984,33.374,33.374,0,0,1-9.6,0,53.412,53.412,0,0,1-9.886-2.833l-12.428,5.95a57.334,57.334,0,0,1-12.145,1.416l-8.191,2.55-10.169,1.7-14.4,4.816s-28.859,3.944-29.94,3.967-9.761.989-16.665,0l-14.688-.284-7.626.284-9.886,1.133-11.863,8.5s-6.449,4.375-8.756,5.1l-1.7.85-3.672,2.55-4.519-.284-2.825-1.983-1.412-2.266-2.26-4.533-0.282-5.95s-119.628,10.437-192.07,22.1-166.931,3.4-166.931,3.4l-61.293-.283s-33.791,3.15-60.446-12.466-50.309-21.02-85.019-28.9S-10,224.048-10,224.048Z"/>
</svg>
