<svg xmlns="http://www.w3.org/2000/svg" width="4058" height="1132" viewBox="0 0 4058 1132">
    <path d="M4288,1313c-1.62,11.97-113.23,235.16-185,177s-164.86-38.77-202-23a435.81,435.81,0,0,0-68,37l-12-15-37,23s-41.96,19.65-45,20-39.72,5.52-45,5-34.67.91-79,4-102,5-102,5-95.97,10.2-122,25-85,27-85,27l-32,1s-43.88,8.48-109,17-77,3-77,3l-6-4-24,3s-37.59,5.48-67.38,1.23c2.08,45.21,3.35,72.39,3.35,72.39s3.21,61.31-51.99,64.91-1439.47-18.22-1439.47-18.22-129.31-4.11-182.59-5.36c-14.14,9.43-35.04,13.61-70.92,8.05-57.66-8.93-131-19-131-19l-42-7h-14l-31-7-26-4-92-23s-45.308-11.13-94-3-232-5-232-5l-262-79s-57.616,14.99-80,9-94-50-94-50l-98-53-87,10,4-787,82,3s97.521,73.32,123,133c0,0-6.507,5.549,37,17,26.442,6.96,80.028,30.344,108,62,18.051,20.428,18,55,18,55s-8.4,45.08,66,62,131.815,21.43,155,27l5,2,14-2a94.523,94.523,0,0,1,18-15c8.154-5.23,21-10,21-10s11.969-20.36,31-35c11.474-8.83,34-15,34-15l33-1a99.755,99.755,0,0,1,30-11c14-2.8,35-2,35-2s30.461,2.6,56-4c17.33-4.479,33-19,33-19s4.7-5.956,9-17c2.87-7.377,4.1-19.206,9-25,9.371-11.075,26-10,26-10l28,20-1-21s2.131-8.747,15-14c11.56-4.718,34-6,34-6s9.575,3.152,34-13c35.47-23.454,90-69,90-69l7,2,5-1s13.84-30.162,47-36c24.31-4.28,68.32-24.314,90.09-34.707,0.71-40.951,1.13-65.345,1.13-65.345s0.93-53.983,74.99-54.2,1545.35,31.776,1545.35,31.776,35.29-.484,55.99,25.222c8.26,10.249,12.62,22.124,13.72,42.608L3007,722l42,14,12,2c19.33-12.076,43,12,43,12s79.96,27.518,119,8,48,1,48,1l20,6s20.45-32.673,55-7c60.4,44.878,140.3,43.4,205,45s68,43,68,43l50-2,52-11,69,39s25.43-5.349,67.41-9S3900,848,3900,848c9.15-37.609,97-36,97-36,9.87-38.955,95-59,95-59S4289.62,1301.03,4288,1313ZM1183,952c-38.12,40.914-118,90-118,90s21.62,31.86,57,54c29.61,18.53,66,23,66,23a71.06,71.06,0,0,0,15,2c13.33-.02,32.05-1.72,48,1,1.53,0.26,2.97.56,4.33,0.89,1.59-85.66,3.11-169.987,4.38-241.706C1243.54,903.166,1219.31,927.869,1183,952Zm1825-72-50.25-10.831c0.96,24.753,2.05,52,3.24,81.059L3023,914l18,5,4-13,14-13Zm79,393-23-7-20,4s-14.84-5.49-18-6c-1.86-.3-26.43-2.01-51.62-3.35q0.99,22.44,1.98,44.62L3036,1298l45-12,20-11Zm253,132c-14.17-7.43-61,4-61,4s-96.33,19.88-107,21-10-2-10-2l-3-4-4,2-3,2-31,4-125,8-13.52,1.2c1.84,40.49,3.56,78.12,5.07,111.27L3001,1549l44-21,22-2c10.6-12.46,23-16,23-16l85-23,44-10,10-4s7.99-5.93,27-13c29.46-10.95,75.93-25.33,87-30C3361.21,1422.31,3354.17,1412.43,3340,1405Z" transform="translate(0 -625.75)"/>
</svg>
