<svg xmlns="http://www.w3.org/2000/svg" width="4058" height="1171" viewBox="0 0 4058 1171">
    <path d="M4083,1214a157.851,157.851,0,0,1-48,17c-27.92,5.03-38-12-38-12-20.48,14.78-111,7-111,7-2.74,43.8-39.24,106.66-84,110s-57.26-34.67-77-42-79-44-79-44l-196,36-131,16a105.1,105.1,0,0,1-47,11c-30.78-.27-70.93-12.94-114-29-80.33-29.96-158-22-158-22l-26.23,1.28c7.31,222.49,14.46,429.89,14.46,429.89s0.21,62.56-55,66c-52.37,3.26-1291.91-12.26-1419.43-13.87-22.72,24.58-74.08,11.78-127.8,7.7-14.57-1.11-33.91-4.3-55.5-8.7-2.64-.04-5.08-0.08-7.28-0.13-12.35-.27-24.13-3.02-34.57-9.15C1209.5,1716.3,1122,1690,1122,1690s-155.435,35.37-225,40-223-90-223-90a122.039,122.039,0,0,0-27-17c-30.214-13.63-75-29-75-29a218.194,218.194,0,0,1-34,15c-13.971,4.75-28.983,6.7-48,12-26.808,7.48-54.885,18.19-84,14-77.987-11.21-63-102-63-102a639.869,639.869,0,0,0-71-32c-23.609-8.89-45.643-23.67-77-14-28.741,8.86-50.263,20.1-75,2-47.04-34.42-83-119-83-119l-73,7,21-780s51.379,12.812,85,52c41.119,47.927,66,124,66,124,49.039,12.9,80,86,80,86l76,54s82.463-9.581,132,13,59,89,59,89l111,76,10,3s37.368-9.77,58,1c14.483,7.56,35.815,16.79,48,28,21.711,19.97,30,42,30,42l93,9c11.712-11.84,22.723-23.26,37-27,31.6-8.29,67,0,67,0,5.591,7.49,28,6,28,6l23-14c20.77-40.43,47-35,47-35l24-4s49.2-2.47,86-8c19.27-23.69,59.93-19.54,111.53-2.04,3.14-215.327,5.69-412.792,5.69-412.792s0.93-54,75.01-54,1551,31,1551,31,36.29-.774,56.99,25c0.06,0.066.11,0.134,0.16,0.2,65.02-5.04,66.47,3.043,119.62,1.632,59.96-1.593,137.42,11.679,160,19s56,2,56,2,37.81-8.927,46-10,33,29,33,29l86,43s16.31-.923,28,1c12.55,2.066,25.94,9.382,36,12,8.7,2.263,15,0,15,0l148-12a55.963,55.963,0,0,1,24-22c15.81-7.54,41-9,41-9s13.32-40.621,55-69c30.29-20.623,68.31-36.675,100-39,53.08-3.894,116,9,116,9,35.24-45.484,87-46,87-46l5,70Z" transform="translate(0 -589)"/>
</svg>
