<svg version="1.1" xmlns="http://www.w3.org/2000/svg" xmlns:xlink="http://www.w3.org/1999/xlink" viewBox="0 0 23.3 29.8">
<path fill='#fff' d="M12.2,19.1c-0.7,0-1.3-0.1-1.9-0.4c-0.8-0.3-1.6-0.7-2.4-1.2c-0.4,0-0.7-0.2-0.8-0.6H6.9
	c-0.2-0.1-0.4-0.3-0.4-0.5c-0.4-0.6-0.3-1,0.1-1.2c-0.6-0.1-1-0.5-1-1.1c0-0.3,0.2-0.5,0.4-0.7l0.3-0.1c-0.3-0.2-0.5-0.6-0.4-1
	c0-0.3,0.2-0.6,0.4-0.7l0.4-0.3c-0.3-0.2-0.5-0.6-0.3-0.9c0.1-0.1,0.2-0.2,0.3-0.3C7,9.7,7.8,9.7,9,10.4c0.5,0.3,1,0.4,1.5,0.4h0.8 c0.2-0.3,0.3-0.6,0.3-1c-0.1-0.3-0.2-0.7-0.2-1c-0.3-0.8,0-1.6,0.7-2.1c0.2-0.3,0.3-0.3,0.4-0.1l0.2,0.4v0.5l0.5,2.1
	c0.4,0.9,0.7,1.6,0.9,2.2c0.3,1.1,0.6,2.2,1,3.2c0.1,0.4,1.6,1.2,4.2,2.4l2,0.9c3.6-5.3,2.2-12.6-3.1-16.2C12.9-1.6,5.6-0.2,2,5.1
	c-2.8,4.1-2.7,9.5,0.3,13.4h0l0.2,0.2c0.1,0.1,0.2,0.3,0.3,0.4l8.3,10.6l6.2-7L12.2,19.1z"/>
</svg>
