<svg xmlns="http://www.w3.org/2000/svg" width="1000" height="955" viewBox="0 0 1000 955">
  <path d="M540.31,276.281c1.917-.088,4.277-0.658,8.037-0.827,0.247-2.081.805-6.39,1.181-8.868q2.718-14.66,5.437-29.323l-74.925,1.183c-8.467-1.291-13.472-5.854-21.036-6.858l-18.2,2.365c-43.37-6.23-91.356-1.2-133.777-7.8-52.978-8.242-107.535-17.606-162.141-25.3-11.131-1.569-26.617,1.188-35.926,2.6l-34.744-.709-31.435-4.966-19.854-9.459c-3.893-.768-4.506,2.207-6.618,3.074-6.825,2.8-8.722,1.082-10.4,8.749H0V19c37.15,8.394,74.077,16.646,105.651,30.268L167.1,79.537l27.654,15.371,16.072,2.365c29.813,7.753,62.8,13.646,96.433,18.209l41.363-.473c31.988,5.011,68.237,8.767,101.4,13.715,36.829,5.5,65.483,9.356,105.415,4.729,10.6-1.228,18.384,4.36,27.181,2.838,5.4-.935,30.023-32.121,35.217-27.194,6.8-8.179,39.061-31.12,51.29-32.87,7.285-1.043,10.731,3.344,15.126,3.547l7.8-1.892c8.921-1.008,14.452,4.571,17.727,9.459,12.413-9.79,26.919-19.43,45.38-23.174l7.564,0.237,8.981-4.02c5.861-.931,9.468,2.857,13.945,3.311L805.03,59.2c20.5-2.421,49.559,16.03,38.526,34.525l-1.419.473-5.908-10.4c-5.6-7.362-22.633-11.568-31.436-4.729L805.03,89c-1.871,7.471-11.766,18.185-18.436,20.809l-12.764,2.838-15.363,6.148-8.508.237-27.418,17.735v0.473c24.5-2.007,101.487-20.249,116.287-.946,9.423-3.715,59.236-10.844,56.017,6.621-4.4,8.226-36.287,9.818-45.617,15.607q-2.127,4.02-4.254,8.04c-5.15,7.982-13.131,13.718-23.163,16.79-15.5,4.747-35.292,3.906-52.944,6.621l-40.417,8.513-30.963,5.439,0.237,0.236c9.182,5.6,19.229,12.954,31.435,15.135l28.6,1.418c7.86,0.743,15.752-3.347,23.872-.945,5.942,1.757,6.727,7.594,11.345,9.7,5.772,2.625,21.724,2.609,23.636,8.749-6.628,8.681-16.412,3.426-28.836,6.385l-8.981,5.439c1.453,0-1.126,1.486-5.2.946-8.955-1.188-18.75-4.6-21.981-4.966-2.028-.015-8.207-0.108-15.6-0.473-13.921-2.5-32.5-4.7-36.635-3.074,0.712,6.247,1.965,15.915,3.073,29.322,25.295,2.562,74.292-3.971,92.508-5.977,3.729,0.384,5.936.757,6.052,0.775q12.526,155.82,25.054,311.67c1.662,14.566,9.494,98.464,3.309,103.1-7.883,5.911-60.489,3.72-76.579,5.675l-182.94,15.844c-9.461.884-20.41-.6-30.49,0.472-12.429,1.325-88.361,4.726-89.579,3.311l-0.709-.473c-3.5-5.188-1.533-95.418,0-110.2q3.544-159.366,7.091-318.764C484.531,277.242,512.855,277.416,540.31,276.281Zm52-47.53c-1.576,11.743-4.1,33.186-5.673,44.929,17.539-.2,73.955-1.263,82.725-1.419-0.394-5.6-1.5-25.145-1.891-30.741Z"/>
</svg>
