<svg xmlns="http://www.w3.org/2000/svg" width="4058" height="1395" viewBox="0 0 4058 1395">
    <path d="M4051,1384s-65.26,57.96-116,87c-21.28,12.18-57,12-57,12s-23.11-.9-39-7c-3.53-.33-64-8-64-8l-50,4a582.412,582.412,0,0,1-88.86,24.78c-40.6,7.9-99.56.62-100.14,0.22a71.847,71.847,0,0,1-23-2c-8.17-2.07-15.96-7.73-26.39-10.71-14.64-4.2-30.31-9.12-43.61-14.29a94.122,94.122,0,0,1-33-22s-25.47-13.59-44-34c-20.83-22.94-33-56-33-56s-55.05,12.42-97,13c-26.21.36-49-8-49-8s-22.01,10.38-41,17a139.927,139.927,0,0,1-25,6s-22.28,10.1-43,14a90.92,90.92,0,0,1-31,0s-35.83,26.26-79.52,44.85c6.53,139.44,11.52,243.09,11.52,243.09s3.21,62.57-52,66-1430-15-1430-15-10.62,0-26.87-.03c-0.09.06-.13,0.09-0.13,0.09s-24.37,15.04-48.59-.21c-11.27-.04-22.94-0.09-34.35-0.15-1.61,16.5-5.56,35.65-15.06,44.36-18.41,16.89-42.92,56.56-108,40s-90.75-29-105-55c-1.44-.12-68.7,23.92-121,22-39.634-1.45-68-29-68-29s-33.669-32.09-57-70c-20.483-33.29-31-73-31-73l-4-9s-27.823-9.56-52-35c-23.821-25.06-44-66-44-66l-13-5s-26.154,4.03-45-5c-35.821-17.17-76-53-76-53l-19-1-45,45s-20,26.12-49,41c-28.5,14.62-66,18-66,18s-21.843,12.61-43,17c-19.8,4.1-39,0-39,0l-37,1s-52.7,15.63-112,5c-65.859-11.81-139-50-139-50H70l-43,7-31,11L-26,778,85,802s-2.771-31.324,89-16,138,26,138,26l130,10,156,3,61-5s39.643-14.363,74-13,70.948-7.594,83-7,22.1-.385,41,8,79-4,79-4,79.44-21.467,111-15,81.22,19.709,110,54c24.39,29.063,78.54,50.518,94.48,56.386,1.51-131.794,2.52-228.443,2.52-228.443s0.93-54,75-54c51.9,0,786.15,14.728,1221.05,23.545A59.705,59.705,0,0,1,2552,613c5-15.232,20-32,20-32s-4.12-33.956,66-50c0,0,37.56-14.67,73-20,30.72-4.619,60,0,60,0s34.88-20.2,72-35c34.26-13.657,71-22,71-22l162-10s57.56-11.731,92-12c29.1-.227,36,11,36,11s29.48,5.12,56,19c21.08,11.033,40.55,26.322,58,38,18.76,12.56,34.73,21.123,34,21-2.25-.38,65,25,65,25s43.02,2.432,85,35,101.79,65.818,120,72,48.37,23.279,93,29,53-6,53-6,104.95-47.864,195,8c0,0,58.3-41.836,156,5s105,484,105,484Z" transform="translate(0 -432)"/>
</svg>
