<svg xmlns="http://www.w3.org/2000/svg" width="4058" height="1362" viewBox="0 0 4058 1362">
    <path d="M4071,1628l-43-9-72-16-79-12-82-9s-38.1-6.24-70-18a251.455,251.455,0,0,1-52-27s-25.24-15.01-39-32a56.784,56.784,0,0,1-12-31,263.507,263.507,0,0,0-18-28c-18.82-25.58-46-59-46-59l-59-7-64-17-31-11c-13,10.51-32,6-32,6a158.546,158.546,0,0,1-40,2c-14.01,1.48-30.05,3.53-44,5-21.79,2.3-39,6-39,6s-14.23,5.91-28,3c-12.69-2.68-25.1-4.96-41-9-8.38-2.13-21.09-5.71-28-8-16.86-5.59-26-12-26-12s-7.88,3.63-22,7c-5.61,1.34-14.73,1.76-20.87,3.23-6.43,1.53-13.19,8.35-19.13,9.77-14.74,3.52-26,1-26,1s-19.79,9.28-37,13a146.646,146.646,0,0,1-25.7,3.09c6.92,171.66,12.67,309.53,12.67,309.53s3.21,61.31-51.99,64.91-1433.47-18.22-1433.47-18.22-150.4-4.78-193.64-5.59-67.18-27.03-63.76-127.85c0.76-22.28,1.73-61.1,2.84-110.59A90.463,90.463,0,0,1,1226,1494c-15.67-2.29-37.65-1.92-55-6a153.268,153.268,0,0,1-39-15l-140,5s-0.43,43.56-89,63c-33.641,7.38-54.9,4.18-74,3-31.186-1.92-49-6-49-6s-40.663,3.57-90,3c-74.378-.86-168-6-168-6s-20.9,21.85-44,37c-23.4,15.35-49,24-49,24s-27.545,28.76-60,44c-33.527,15.75-72,18-72,18s-25.2-1.9-46-9a165.147,165.147,0,0,1-39-20s-56.192-12.58-112-21c-49.855-7.53-100-11-100-11l-85-27,11-514,35-114s173.36,51.679,254,87c24.818,10.87,39.962,21.05,54,27,31.576,13.39,43,14,43,14a104.857,104.857,0,0,0,30-18c10.175-8.92,5.97-9.35,15-19,3.878-4.15,9.865-6.14,15-11,4.026-3.81,3.652-7.29,7-11a92.539,92.539,0,0,1,14-12l59-46s5.133-10.064,16-22c5.769-6.336,13.231-9.644,20-16,6.242-5.861,6.257-11.971,11-17,6.014-6.377,16-11,16-11s5.8-14.552,12-24a25.857,25.857,0,0,1,9-8s-2.406-25.211,14-47c15.573-20.682,50-38,50-38s12.737-6.586,24-9a44.606,44.606,0,0,1,18,0s10.843-5.271,21-7a113.669,113.669,0,0,1,26-1,24.886,24.886,0,0,1,17-13c19.761-4.359,51-2,51-2a107.4,107.4,0,0,1,22-7,211.551,211.551,0,0,1,31-3s12.5-5.884,25-8c18.71-3.166,40-3,40-3a126.317,126.317,0,0,0,22-4c15.268-4.049,35.806-11.109,52-12,23.956-1.319,35,10,35,10s23.09-1.7,42,1a138.142,138.142,0,0,1,35,10s14-5.751,37-1,55,20,55,20,44.26,14.987,72,43c10.17,10.271,20.46,25.629,25,37,5.33,13.361,4,22,4,22l5,5,1.28,0.87c1.77-100.288,2.94-168.922,2.94-168.922s0.93-53.983,74.99-54.2,1543.35,25.776,1543.35,25.776,35.29-.484,55.99,25.222c9.68,12.008,14,26.237,14,53.942,0,6.43.2,17.158,0.57,31.511L2954,761s29.61-14,57-14c40.85,0,85,14,85,14s8.95-29.2,28-34c16.75-4.221,40.34-7.226,59-6a149.453,149.453,0,0,1,40,8c-93.43-46.1-95-142-95-142-43.2,41.831-102,98-102,98s-17.86-14.575-11-34c9.75-27.6,37.09-129.452,83-174,69.15-67.106,179-78,179-78s18.58-3.591,29-4c7.87-.309,9.93,1.739,9.43,2.02-0.44-.071-0.61-0.081-0.43-0.02a0.549,0.549,0,0,0,.43.02A294.922,294.922,0,0,1,3359,409a164.324,164.324,0,0,1,33,17s28.67,9.962,49,25c15.51,11.474,24,29,24,29l47,37s22.88,14.642,37,27a40.719,40.719,0,0,1,11,15s17.55,11.379,26,21c5.26,5.981,3,12,3,12s19.62,8.418,26,15c9.12,9.4,6,18,6,18l28,34,15,16.437L3689,707s7.83,2.63,13,6a44.1,44.1,0,0,1,10,9s12.34,0.006,19,4c7.8,4.678,16.85,11.6,24.47,17.812C3764.82,751.443,3772,758,3772,758l18,22,10,27,7,33a52.6,52.6,0,0,1,10,13,25.869,25.869,0,0,1,3,13l-2,5,16,20,1,8,7,16,17,33,11,18s8.53,11.177,12,23c4.81,16.41,5,35,5,35a110.26,110.26,0,0,1,7,14,48.94,48.94,0,0,1,3,12s23.2-.14,52.25-0.31c23.29-.15,50.87,2.44,72.75,2.31a286.383,286.383,0,0,0,41-3l28,4ZM1256.51,1040.58c-10.72,11.58-24.47,22.88-40.51,28.42-40.24,13.9-40,16-40,16l-7,35,79,34s3.08,1.47,6.98,3.34C1255.17,1146.18,1256.34,1064.07,1256.51,1040.58ZM3024,896c-11.15-5.489-41.33-11.654-68.11-16.362,0.82,23.462,1.74,48.868,2.74,75.711L3002,938l23-16Z" transform="translate(0 -394.969)"/>
</svg>
