<?xml version="1.0" standalone="no"?>
<!DOCTYPE svg PUBLIC "-//W3C//DTD SVG 20010904//EN"
 "http://www.w3.org/TR/2001/REC-SVG-20010904/DTD/svg10.dtd">
<svg version="1.0" xmlns="http://www.w3.org/2000/svg"
 width="1100.000000pt" height="1100.000000pt" viewBox="0 0 1100.000000 1100.000000"
 preserveAspectRatio="xMidYMid meet">
<metadata>
Created by potrace 1.11, written by Peter Selinger 2001-2013
</metadata>
<g transform="translate(0.000000,1100.000000) scale(0.100000,-0.100000)"
fill="#000000" stroke="none">
<path d="M0 5500 l0 -5500 5500 0 5500 0 0 5500 0 5500 -5500 0 -5500 0 0
-5500z m3235 2130 c71 -6 174 -20 229 -30 56 -11 117 -20 138 -20 94 0 406
-137 588 -258 521 -348 848 -826 966 -1414 62 -312 36 -740 -65 -1044 -112
-337 -280 -622 -496 -838 -191 -193 -390 -337 -616 -445 -136 -66 -359 -146
-369 -134 -4 5 -15 41 -25 81 -16 65 -17 111 -10 465 l7 392 90 360 c85 341
89 365 86 450 -2 59 -9 102 -20 125 -29 58 -85 298 -97 410 -6 58 -16 227 -21
375 -6 149 -19 405 -29 570 -21 331 -33 390 -93 440 -38 32 -69 32 -107 0 -58
-50 -61 -81 -47 -545 5 -162 5 -361 1 -442 -7 -143 -8 -148 -29 -148 -19 0
-40 49 -201 478 -175 463 -181 478 -225 520 -67 64 -95 77 -141 63 -49 -15
-79 -53 -79 -100 0 -32 264 -841 319 -978 l21 -53 -42 30 c-23 17 -47 39 -54
49 -7 10 -28 26 -47 34 -47 23 -99 5 -161 -55 l-49 -47 5 -56 c3 -36 12 -66
26 -85 12 -16 22 -31 22 -33 0 -3 -18 -7 -41 -11 -72 -12 -98 -32 -131 -102
-38 -81 -36 -146 5 -212 22 -33 25 -47 17 -62 -13 -24 -13 -77 0 -85 6 -3 10
-53 10 -113 0 -124 27 -259 66 -340 14 -29 39 -102 54 -162 32 -119 40 -140
76 -183 38 -45 32 -116 -51 -584 -41 -233 -75 -433 -75 -444 0 -15 -5 -19 -17
-15 -10 3 -56 15 -103 26 -559 140 -1071 555 -1335 1080 -258 515 -303 1150
-120 1680 106 306 287 584 541 830 313 303 629 463 1079 545 228 42 357 50
550 35z m4959 -25 c361 -55 714 -198 991 -402 109 -80 339 -309 419 -416 407
-547 535 -1142 381 -1763 -48 -194 -172 -554 -190 -554 -8 0 -594 265 -750
339 -203 97 -410 213 -467 262 -44 37 -50 48 -87 162 -22 67 -61 201 -87 297
-28 106 -77 252 -125 370 -81 203 -169 514 -169 601 0 43 -33 114 -57 123 -20
8 -149 -120 -173 -171 -34 -72 -28 -171 21 -360 21 -82 15 -142 -22 -203 l-21
-33 -126 6 c-145 7 -202 22 -322 82 -108 54 -178 75 -252 75 -73 0 -122 -24
-172 -81 -47 -56 -49 -103 -6 -152 17 -19 30 -37 30 -41 0 -3 -25 -24 -56 -47
-59 -43 -84 -85 -84 -141 0 -50 18 -104 46 -137 l25 -30 -31 -16 c-44 -23 -85
-112 -75 -163 11 -61 41 -98 105 -130 l59 -30 -25 -23 c-36 -34 -33 -92 11
-179 35 -69 69 -100 112 -100 10 0 36 -20 56 -45 28 -32 47 -46 75 -51 20 -4
82 -33 137 -64 156 -90 232 -125 340 -158 149 -45 183 -53 260 -61 l70 -6 472
-350 c260 -193 472 -354 473 -358 0 -11 -268 -140 -370 -177 -99 -36 -282 -83
-395 -102 -119 -19 -456 -16 -580 5 -236 41 -504 126 -700 222 -214 104 -368
217 -535 392 -164 170 -298 370 -417 619 -235 494 -264 1048 -83 1570 72 208
229 487 365 650 189 226 456 444 685 559 243 122 509 200 769 225 114 11 352
4 475 -15z"/>
</g>
</svg>
